<svg id="LogoO2" data-name="LogoO2" width="565" height="169" viewBox="0 0 565 169" fill="none" xmlns="http://www.w3.org/2000/svg">
<path d="M204 12.7614H213.919L229.18 55.4026L243.22 12.7614H252.834L234.521 66.0629H223.839L204 12.7614Z" fill="#4E91DE"/>
<path d="M258.951 27.9904H267.802V66.0629H258.951V27.9904ZM263.376 23.4217C261.748 23.4217 260.375 22.8887 259.256 21.8227C258.188 20.7059 257.653 19.3353 257.653 17.7109C257.653 16.0864 258.188 14.7412 259.256 13.6752C260.375 12.5584 261.748 12 263.376 12C264.953 12 266.301 12.5584 267.42 13.6752C268.539 14.7412 269.099 16.0864 269.099 17.7109C269.099 19.3353 268.539 20.7059 267.42 21.8227C266.301 22.8887 264.953 23.4217 263.376 23.4217Z" fill="#4E91DE"/>
<path d="M278.092 27.9904H285.036L285.722 32.2546C287.045 30.6301 288.673 29.4118 290.606 28.5996C292.59 27.7366 294.777 27.3051 297.168 27.3051H300.983V35.5288H297.168C293.658 35.5288 291.064 36.2902 289.385 37.8131C287.757 39.336 286.943 41.3919 286.943 43.9809V66.0629H278.092V27.9904Z" fill="#4E91DE"/>
<path d="M303.991 27.9904H310.858V17.3301H319.709V27.9904H329.171V35.7572H319.709V52.5853C319.709 54.565 320.142 56.0118 321.006 56.9255C321.922 57.8393 323.27 58.2961 325.05 58.2961H329.934V66.0629H323.448C319.379 66.0629 316.25 64.9969 314.063 62.8648C311.926 60.682 310.858 57.5601 310.858 53.499V35.7572H303.991V27.9904Z" fill="#4E91DE"/>
<path d="M350.181 66.7482C345.705 66.7482 342.169 65.3776 339.575 62.6364C336.981 59.8444 335.684 55.6564 335.684 50.0725V27.9904H344.535V50.0725C344.535 52.8645 345.196 54.9711 346.519 56.3925C347.841 57.8139 349.571 58.5246 351.707 58.5246C354.302 58.5246 356.362 57.7885 357.888 56.3164C359.465 54.8442 360.304 52.8898 360.406 50.4532V27.9904H369.257V66.0629H362.314L361.627 61.8749C360.253 63.4486 358.6 64.6669 356.667 65.5299C354.734 66.3421 352.572 66.7482 350.181 66.7482Z" fill="#4E91DE"/>
<path d="M389.129 66.7482C385.008 66.7482 381.88 65.7329 379.744 63.7024C377.607 61.6719 376.539 58.8545 376.539 55.2503C376.539 53.2706 376.844 51.4938 377.454 49.9202C378.116 48.2958 379.133 46.9505 380.507 45.8845C381.931 44.7677 383.737 43.9301 385.924 43.3717C388.162 42.7626 390.884 42.458 394.089 42.458H400.498V40.1736C400.498 38.3462 399.989 36.9755 398.972 36.0618C398.006 35.0973 396.378 34.615 394.089 34.615C391.952 34.615 390.401 35.0212 389.434 35.8334C388.468 36.6456 387.883 37.7116 387.679 39.0315H378.065C378.268 35.6303 379.642 32.8383 382.185 30.6555C384.78 28.4219 388.747 27.3051 394.089 27.3051C399.176 27.3051 402.991 28.4727 405.534 30.8078C408.078 33.1429 409.349 36.2649 409.349 40.1736V66.0629H402.406L401.49 60.8089C400.168 62.7379 398.438 64.21 396.301 65.2253C394.216 66.2406 391.825 66.7482 389.129 66.7482ZM390.655 59.4383C392.079 59.4383 393.376 59.2099 394.546 58.753C395.767 58.2454 396.81 57.5854 397.675 56.7732C398.54 55.9103 399.226 54.9458 399.735 53.8797C400.244 52.8137 400.498 51.6715 400.498 50.4532V49.311H394.089C391.036 49.311 388.9 49.8187 387.679 50.8339C386.458 51.8492 385.848 53.2198 385.848 54.9457C385.848 56.3164 386.255 57.4078 387.069 58.22C387.933 59.0322 389.129 59.4383 390.655 59.4383Z" fill="#4E91DE"/>
<path d="M431.365 66.0629C427.347 66.0629 424.244 64.9969 422.056 62.8648C419.92 60.682 418.852 57.5601 418.852 53.499V12.7614H427.703V52.5853C427.703 54.565 428.135 56.0118 429 56.9255C429.865 57.8393 431.187 58.2961 432.968 58.2961H434.875V66.0629H431.365Z" fill="#4E91DE"/>
<path d="M223.839 153.771C221.092 153.771 218.599 153.365 216.361 152.553C214.174 151.69 212.292 150.471 210.715 148.898C209.189 147.273 207.993 145.319 207.128 143.035C206.315 140.75 205.908 138.161 205.908 135.268V132.831C205.908 129.988 206.315 127.425 207.128 125.141C207.993 122.856 209.214 120.927 210.791 119.353C212.368 117.729 214.25 116.485 216.438 115.622C218.676 114.759 221.143 114.328 223.839 114.328C228.672 114.328 232.41 115.521 235.056 117.907C237.752 120.293 239.481 123.389 240.244 127.196H230.783C230.376 125.826 229.536 124.709 228.265 123.846C226.993 122.983 225.39 122.552 223.457 122.552C222.338 122.552 221.27 122.755 220.253 123.161C219.286 123.516 218.421 124.125 217.658 124.988C216.895 125.8 216.285 126.866 215.827 128.186C215.42 129.455 215.217 131.004 215.217 132.831V135.268C215.217 137.044 215.446 138.593 215.903 139.913C216.361 141.182 216.972 142.248 217.735 143.111C218.498 143.923 219.362 144.532 220.329 144.938C221.346 145.344 222.389 145.547 223.457 145.547C225.645 145.547 227.298 145.065 228.417 144.101C229.587 143.136 230.376 141.943 230.783 140.522H240.244C239.481 144.532 237.752 147.756 235.056 150.192C232.41 152.578 228.672 153.771 223.839 153.771Z" fill="#4E91DE"/>
<path d="M262.745 153.771C256.997 153.771 252.495 152.147 249.239 148.898C246.034 145.649 244.432 141.106 244.432 135.268V132.831C244.432 129.938 244.839 127.349 245.653 125.064C246.518 122.78 247.739 120.851 249.315 119.277C250.943 117.653 252.876 116.435 255.115 115.622C257.353 114.759 259.896 114.328 262.745 114.328C268.493 114.328 272.97 115.952 276.174 119.201C279.43 122.45 281.058 126.993 281.058 132.831V135.268C281.058 138.161 280.625 140.75 279.761 143.035C278.947 145.319 277.726 147.273 276.098 148.898C274.521 150.471 272.588 151.69 270.299 152.553C268.061 153.365 265.543 153.771 262.745 153.771ZM262.745 145.547C265.644 145.547 267.857 144.71 269.383 143.035C270.96 141.359 271.749 138.77 271.749 135.268V132.831C271.749 129.379 270.935 126.816 269.307 125.141C267.73 123.415 265.543 122.552 262.745 122.552C259.845 122.552 257.607 123.389 256.03 125.064C254.504 126.74 253.741 129.328 253.741 132.831V135.268C253.741 138.72 254.53 141.309 256.106 143.035C257.734 144.71 259.947 145.547 262.745 145.547Z" fill="#4E91DE"/>
<path d="M288.673 115.013H295.617L296.304 119.201C297.626 117.628 299.229 116.435 301.111 115.622C303.044 114.759 305.155 114.328 307.444 114.328C310.038 114.328 312.327 114.861 314.311 115.927C316.346 116.942 317.974 118.465 319.195 120.496C320.517 118.516 322.247 116.993 324.383 115.927C326.52 114.861 328.936 114.328 331.632 114.328C335.956 114.328 339.415 115.724 342.01 118.516C344.604 121.308 345.901 125.47 345.901 131.004V153.086H337.05V131.004C337.05 128.161 336.389 126.054 335.066 124.684C333.794 123.262 332.014 122.552 329.725 122.552C327.436 122.552 325.528 123.338 324.002 124.912C322.476 126.435 321.713 128.466 321.713 131.004V153.086H312.862V131.004C312.862 128.212 312.2 126.105 310.878 124.684C309.555 123.262 307.775 122.552 305.536 122.552C303.247 122.552 301.365 123.288 299.89 124.76C298.415 126.232 297.626 128.186 297.525 130.623V153.086H288.673V115.013Z" fill="#4E91DE"/>
<path d="M375.431 153.771C370.649 153.771 366.935 152.273 364.29 149.278V168.315H355.439V115.013H362.383L363.222 120.191C364.545 118.211 366.223 116.739 368.258 115.775C370.344 114.81 372.735 114.328 375.431 114.328C377.618 114.328 379.627 114.734 381.459 115.546C383.341 116.308 384.943 117.475 386.266 119.049C387.588 120.572 388.631 122.501 389.394 124.836C390.157 127.12 390.539 129.785 390.539 132.831V135.268C390.539 138.314 390.157 140.979 389.394 143.263C388.631 145.547 387.563 147.476 386.189 149.05C384.867 150.624 383.29 151.817 381.459 152.629C379.627 153.39 377.618 153.771 375.431 153.771ZM372.76 145.547C375.456 145.547 377.542 144.735 379.017 143.111C380.492 141.486 381.23 138.872 381.23 135.268V132.831C381.23 129.328 380.467 126.74 378.941 125.064C377.414 123.389 375.354 122.552 372.76 122.552C370.318 122.552 368.309 123.389 366.732 125.064C365.206 126.74 364.392 129.176 364.29 132.374V135.268C364.29 138.618 365.079 141.182 366.656 142.958C368.283 144.684 370.318 145.547 372.76 145.547Z" fill="#4E91DE"/>
<path d="M412.252 153.771C407.776 153.771 404.241 152.4 401.646 149.659C399.052 146.867 397.755 142.679 397.755 137.095V115.013H406.606V137.095C406.606 139.887 407.267 141.994 408.59 143.415C409.913 144.837 411.642 145.547 413.779 145.547C416.373 145.547 418.433 144.811 419.959 143.339C421.536 141.867 422.375 139.913 422.477 137.476V115.013H431.328V153.086H424.385L423.698 148.898C422.325 150.471 420.671 151.69 418.738 152.553C416.805 153.365 414.643 153.771 412.252 153.771Z" fill="#4E91DE"/>
<path d="M436.702 115.013H443.57V104.353H452.421V115.013H461.883V122.78H452.421V139.608C452.421 141.588 452.853 143.035 453.718 143.948C454.634 144.862 455.982 145.319 457.762 145.319H462.646V153.086H456.16C452.09 153.086 448.962 152.02 446.775 149.888C444.638 147.705 443.57 144.583 443.57 140.522V122.78H436.702V115.013Z" fill="#4E91DE"/>
<path d="M469.158 115.013H478.01V153.086H469.158V115.013ZM473.584 110.445C471.956 110.445 470.583 109.912 469.464 108.845C468.395 107.729 467.861 106.358 467.861 104.734C467.861 103.109 468.395 101.764 469.464 100.698C470.583 99.5812 471.956 99.0228 473.584 99.0228C475.161 99.0228 476.509 99.5812 477.628 100.698C478.747 101.764 479.307 103.109 479.307 104.734C479.307 106.358 478.747 107.729 477.628 108.845C476.509 109.912 475.161 110.445 473.584 110.445Z" fill="#4E91DE"/>
<path d="M488.3 115.013H495.244L495.93 119.277C498.779 115.978 502.721 114.328 507.757 114.328C512.437 114.328 516.074 115.724 518.669 118.516C521.314 121.257 522.637 125.42 522.637 131.004V153.086H513.785V131.004C513.785 128.212 513.099 126.105 511.725 124.684C510.403 123.262 508.571 122.552 506.231 122.552C503.484 122.552 501.297 123.288 499.669 124.76C498.092 126.232 497.253 128.186 497.151 130.623V153.086H488.3V115.013Z" fill="#4E91DE"/>
<path d="M545.008 152.248C542.77 152.248 540.735 151.893 538.904 151.182C537.073 150.421 535.47 149.304 534.097 147.832C532.774 146.36 531.732 144.532 530.969 142.349C530.256 140.116 529.9 137.501 529.9 134.506V132.07C529.9 129.227 530.282 126.714 531.045 124.531C531.808 122.298 532.851 120.445 534.173 118.973C535.547 117.45 537.149 116.308 538.98 115.546C540.812 114.734 542.821 114.328 545.008 114.328C550.401 114.328 554.47 116.232 557.217 120.039L558.056 115.013H565V153.086C565 158.365 563.627 162.325 560.88 164.964C558.133 167.655 553.86 169 548.061 169C545.365 169 543.025 168.721 541.041 168.162C539.108 167.604 537.48 166.792 536.157 165.726C534.835 164.66 533.817 163.34 533.105 161.766C532.444 160.243 532.011 158.492 531.808 156.512H540.659C541.066 158.289 541.804 159.634 542.872 160.548C543.94 161.462 545.67 161.919 548.061 161.919C550.808 161.919 552.842 161.208 554.165 159.786C555.487 158.416 556.149 156.182 556.149 153.086V147.756C554.775 149.228 553.147 150.344 551.265 151.106C549.383 151.867 547.298 152.248 545.008 152.248ZM547.679 144.024C550.121 144.024 552.13 143.187 553.707 141.512C555.335 139.836 556.149 137.501 556.149 134.506V132.07C556.149 129.075 555.335 126.74 553.707 125.064C552.13 123.389 550.121 122.552 547.679 122.552C544.983 122.552 542.897 123.338 541.422 124.912C539.947 126.435 539.209 128.821 539.209 132.07V134.506C539.209 137.654 539.972 140.04 541.498 141.664C543.025 143.238 545.085 144.024 547.679 144.024Z" fill="#4E91DE"/>
<path d="M73 18C66 14 60.35 12 50.75 12C38.75 12 12 26 12 58C12 90 35.5 97.5 50.75 97.5C73 97.5 88 80.5 88 58C88 44 97.5 20.5 119 20.5C140.5 20.5 153 36 153 52C153 82.5 88 103 88 133.5H156" stroke="#4E91DE" stroke-width="23"/>
</svg>
