<svg id="LogoO2" data-name="LogoO2" fill="none" width="609" height="190" xmlns="http://www.w3.org/2000/svg">
 <g>
  <g id="svg_1">
   <path id="svg_2" d="m157.7,4.1l26.5,0c12.6,0 22.2,3.3 29,10c6.7,6.7 10.1,16.2 10.1,28.4l0,7.2c0,6 -0.9,11.4 -2.6,16.2c-1.8,4.8 -4.3,8.8 -7.6,12.1c-3.3,3.3 -7.4,5.9 -12.3,7.6c-4.9,1.7 -10.4,2.6 -16.5,2.6l-26.5,0l0,-84.1l-0.1,0zm11.3,10.4l0,63.5l15.2,0c9,0 15.8,-2.3 20.4,-7c4.6,-4.6 6.9,-11.7 6.9,-21.2l0,-7.2c0,-9.3 -2.3,-16.3 -7,-21c-4.7,-4.7 -11.4,-7.1 -20.3,-7.1l-15.2,0z" stroke-miterlimit="10" stroke-width="0.25" stroke="#316CB5" fill="#316CB5"/>
   <path id="svg_3" d="m241.4,36.4c-1.6,0 -2.9,-0.5 -3.9,-1.5c-1,-1 -1.5,-2.3 -1.5,-3.9c0,-1.6 0.5,-2.9 1.5,-3.9c1,-1 2.3,-1.5 3.9,-1.5c1.6,0 2.9,0.5 3.9,1.5c1,1 1.5,2.3 1.5,3.9c0,1.6 -0.5,2.9 -1.5,3.9c-1.1,1 -2.3,1.5 -3.9,1.5zm-4.1,6.8l8.1,0l0,45.1l-8.1,0l0,-45.1z" stroke-miterlimit="10" stroke-width="0.25" stroke="#316CB5" fill="#316CB5"/>
   <path id="svg_4" d="m274.9,87.2c-2.6,0 -5,-0.5 -7.2,-1.4c-2.2,-0.9 -4.1,-2.2 -5.6,-4c-1.6,-1.8 -2.8,-3.9 -3.7,-6.5c-0.9,-2.6 -1.4,-5.5 -1.4,-8.8l0,-3.4c0,-3.2 0.5,-6.2 1.4,-8.7c0.9,-2.6 2.1,-4.7 3.7,-6.5c1.6,-1.7 3.5,-3.1 5.6,-4c2.2,-0.9 4.5,-1.4 7.1,-1.4c6.6,0 11.4,2.4 14.6,7.1l0.9,-6.4l6.3,0l0,45.1c0,6.1 -1.6,10.8 -4.8,14c-3.2,3.2 -8,4.8 -14.3,4.8c-6,0 -10.4,-1.3 -13.3,-3.8c-2.9,-2.6 -4.5,-6 -5,-10.4l8.1,0c0.5,2.3 1.4,4 2.9,5.2c1.4,1.2 3.9,1.8 7.3,1.8c3.9,0 6.7,-0.9 8.4,-2.7c1.7,-1.8 2.6,-4.7 2.6,-8.9l0,-6.9c-3.2,3.9 -7.8,5.8 -13.6,5.8zm2.1,-7.7c3.4,0 6.1,-1.1 8.3,-3.4c2.2,-2.3 3.2,-5.4 3.2,-9.5l0,-3.4c0,-4 -1.1,-7.2 -3.2,-9.5c-2.2,-2.3 -4.9,-3.4 -8.3,-3.4c-3.6,0 -6.4,1.1 -8.5,3.3c-2,2.2 -3.1,5.4 -3.1,9.6l0,3.4c0,4.3 1,7.5 3.1,9.6c2.2,2.2 5,3.3 8.5,3.3z" stroke-miterlimit="10" stroke-width="0.25" stroke="#316CB5" fill="#316CB5"/>
   <path id="svg_5" d="m315,36.4c-1.6,0 -2.9,-0.5 -3.9,-1.5c-1,-1 -1.5,-2.3 -1.5,-3.9c0,-1.6 0.5,-2.9 1.5,-3.9c1,-1 2.3,-1.5 3.9,-1.5c1.6,0 2.9,0.5 3.9,1.5c1,1 1.5,2.3 1.5,3.9c0,1.6 -0.5,2.9 -1.5,3.9c-1.1,1 -2.4,1.5 -3.9,1.5zm-4.1,6.8l8.1,0l0,45.1l-8.1,0l0,-45.1z" stroke-miterlimit="10" stroke-width="0.25" stroke="#316CB5" fill="#316CB5"/>
   <path id="svg_6" d="m327.9,43.2l8.1,0l0,-12.6l8.1,0l0,12.6l11.7,0l0,7.4l-11.7,0l0,23.5c0,4.5 2.1,6.8 6.3,6.8l6.3,0l0,7.4l-7.5,0c-4.3,0 -7.5,-1.1 -9.8,-3.4c-2.3,-2.3 -3.4,-5.6 -3.4,-9.8l0,-24.5l-8.1,0l0,-7.4z" stroke-miterlimit="10" stroke-width="0.25" stroke="#316CB5" fill="#316CB5"/>
   <path id="svg_7" d="m377.9,89c-4.7,0 -8.3,-1.2 -10.7,-3.6c-2.5,-2.4 -3.7,-5.6 -3.7,-9.8c0,-2.3 0.4,-4.3 1.1,-6.2c0.7,-1.8 1.9,-3.4 3.5,-4.6c1.6,-1.3 3.6,-2.2 6.1,-2.9c2.5,-0.7 5.5,-1 9.2,-1l9,0l0,-3.3c0,-2.5 -0.7,-4.5 -2.2,-5.9c-1.5,-1.4 -3.7,-2.1 -6.8,-2.1c-3.1,0 -5.3,0.6 -6.6,1.7c-1.4,1.1 -2.2,2.6 -2.4,4.4l-9,0c0.2,-3.8 1.8,-7 4.7,-9.6c2.9,-2.5 7.4,-3.8 13.3,-3.8c5.7,0 9.9,1.4 12.8,4.1s4.3,6.4 4.3,11.1l0,30.7l-6.3,0l-1,-7.4c-1.6,2.6 -3.7,4.6 -6.4,6c-2.6,1.5 -5.6,2.2 -8.9,2.2zm0.9,-7.2c2,0 3.8,-0.3 5.5,-1c1.7,-0.7 3.1,-1.5 4.3,-2.7c1.2,-1.1 2.1,-2.4 2.8,-3.9c0.7,-1.5 1,-3.1 1,-4.8l0,-1.6l-9,0c-4.1,0 -7.1,0.7 -8.8,2.1c-1.7,1.4 -2.6,3.3 -2.6,5.5c0,1.9 0.6,3.5 1.8,4.6c1.2,1.2 2.9,1.8 5,1.8z" stroke-miterlimit="10" stroke-width="0.25" stroke="#316CB5" fill="#316CB5"/>
   <path id="svg_8" d="m416.9,84.9c-2.3,-2.3 -3.4,-5.5 -3.4,-9.9l0,-49.8l8.1,0l0,49c0,4.5 2.1,6.8 6.2,6.8l2.8,0l0,7.4l-4,0c-4.2,-0.1 -7.4,-1.2 -9.7,-3.5z" stroke-miterlimit="10" stroke-width="0.25" stroke="#316CB5" fill="#316CB5"/>
  </g>
  <g id="svg_9">
   <path id="svg_10" d="m182,96.2l29,0c11.4,0 19.7,2.4 25,7.3c5.3,4.9 7.9,11.9 7.9,21c0,8.8 -2.7,15.8 -8.1,20.8c-5.4,5 -13.6,7.5 -24.8,7.5l-17.2,0l0,31.8l-11.8,0l0,-88.4zm11.8,10.9l0,34.9l17.2,0c7.3,0 12.6,-1.5 15.8,-4.4c3.2,-2.9 4.8,-7.3 4.8,-13c0,-5.8 -1.6,-10.2 -4.7,-13.1c-3.2,-2.9 -8.4,-4.4 -15.9,-4.4l-17.2,0z" stroke-miterlimit="10" stroke-width="0.25" stroke="#00AEEF" fill="#27AAE1"/>
   <path id="svg_11" d="m258.3,181.1c-2.4,-2.4 -3.6,-5.8 -3.6,-10.4l0,-52.4l8.5,0l0,51.5c0,4.7 2.2,7.1 6.5,7.1l2.9,0l0,7.8l-4.2,0c-4.3,0 -7.7,-1.2 -10.1,-3.6z" stroke-miterlimit="10" stroke-width="0.25" stroke="#00AEEF" fill="#27AAE1"/>
   <path id="svg_12" d="m294.6,185.4c-4.9,0 -8.7,-1.2 -11.3,-3.7c-2.6,-2.5 -3.9,-5.9 -3.9,-10.3c0,-2.4 0.4,-4.6 1.1,-6.5c0.8,-1.9 2,-3.6 3.6,-4.9c1.7,-1.3 3.8,-2.3 6.4,-3c2.6,-0.7 5.8,-1 9.6,-1l9.5,0l0,-3.5c0,-2.7 -0.8,-4.7 -2.3,-6.2c-1.5,-1.5 -3.9,-2.2 -7.2,-2.2c-3.2,0 -5.5,0.6 -7,1.8c-1.4,1.2 -2.3,2.7 -2.5,4.6l-9.5,0c0.3,-4 1.9,-7.4 5,-10c3.1,-2.7 7.7,-4 14,-4c5.9,0 10.4,1.4 13.5,4.3s4.5,6.7 4.5,11.7l0,32.2l-6.6,0l-1,-7.8c-1.7,2.7 -3.9,4.8 -6.7,6.3c-2.6,1.5 -5.7,2.2 -9.2,2.2zm0.9,-7.5c2.1,0 4,-0.3 5.7,-1c1.7,-0.7 3.2,-1.6 4.5,-2.8c1.3,-1.2 2.2,-2.5 2.9,-4.1c0.7,-1.6 1,-3.3 1,-5l0,-1.7l-9.5,0c-4.4,0 -7.4,0.7 -9.2,2.2c-1.8,1.5 -2.7,3.4 -2.7,5.8c0,2 0.6,3.6 1.9,4.8c1.4,1.2 3.2,1.8 5.4,1.8z" stroke-miterlimit="10" stroke-width="0.25" stroke="#00AEEF" fill="#27AAE1"/>
   <path id="svg_13" d="m325.4,137.3l8.5,0l0,-13.3l8.5,0l0,13.3l12.3,0l0,7.8l-12.3,0l0,24.7c0,4.7 2.2,7.1 6.6,7.1l6.6,0l0,7.8l-7.9,0c-4.5,0 -7.9,-1.2 -10.3,-3.6c-2.4,-2.4 -3.6,-5.8 -3.6,-10.3l0,-25.7l-8.5,0l0,-7.8l0.1,0z" stroke-miterlimit="10" stroke-width="0.25" stroke="#00AEEF" fill="#27AAE1"/>
   <path id="svg_14" d="m361.9,137.3l8.5,0l0,-5c0,-4.5 1.2,-8 3.6,-10.4c2.4,-2.4 5.8,-3.6 10.4,-3.6l7.9,0l0,7.8l-6.7,0c-4.4,0 -6.5,2.3 -6.5,7l0,4.2l11.4,0l0,7.8l-11.4,0l0,39.6l-8.5,0l0,-39.6l-8.5,0l0,-7.8l-0.2,0z" stroke-miterlimit="10" stroke-width="0.25" stroke="#00AEEF" fill="#27AAE1"/>
   <path id="svg_15" d="m416.8,185.4c-3.3,0 -6.4,-0.5 -9.1,-1.6s-5,-2.5 -6.9,-4.5c-1.9,-1.9 -3.3,-4.3 -4.4,-7.1c-1,-2.8 -1.5,-6 -1.5,-9.5l0,-3.6c0,-3.5 0.5,-6.6 1.6,-9.4c1,-2.8 2.5,-5.2 4.4,-7.2c1.9,-2 4.2,-3.5 6.9,-4.5c2.7,-1 5.7,-1.6 9,-1.6c3.3,0 6.3,0.5 9,1.6c2.7,1 5,2.5 6.9,4.5c1.9,1.9 3.4,4.3 4.4,7.1c1,2.8 1.6,6 1.6,9.5l0,3.6c0,3.5 -0.5,6.7 -1.6,9.5c-1,2.8 -2.5,5.2 -4.4,7.1c-1.9,2 -4.2,3.5 -6.9,4.5c-2.7,1.1 -5.7,1.6 -9,1.6zm0,-8.1c4,0 7.1,-1.2 9.4,-3.6c2.3,-2.4 3.5,-6 3.5,-10.9l0,-3.6c0,-4.7 -1.2,-8.3 -3.5,-10.8c-2.3,-2.5 -5.4,-3.7 -9.4,-3.7s-7.1,1.2 -9.4,3.6c-2.3,2.4 -3.5,6.1 -3.5,10.9l0,3.6c0,4.7 1.2,8.3 3.5,10.8c2.3,2.5 5.5,3.7 9.4,3.7z" stroke-miterlimit="10" stroke-width="0.25" stroke="#00AEEF" fill="#27AAE1"/>
   <path id="svg_16" d="m450,137.3l6.6,0l0.9,6.4c1.6,-2.3 3.7,-4.1 6.3,-5.4c2.5,-1.2 5.4,-1.8 8.5,-1.8l4.7,0l0,8.2l-4.7,0c-4.4,0 -7.7,1.1 -10,3.2c-2.3,2.1 -3.6,4.9 -3.7,8.3l0,28.4l-8.6,0l0,-47.3z" stroke-miterlimit="10" stroke-width="0.25" stroke="#00AEEF" fill="#27AAE1"/>
   <path id="svg_17" d="m486,137.3l6.6,0l0.9,6.4c1.6,-2.3 3.7,-4.1 6.1,-5.4c2.4,-1.2 5.2,-1.8 8.2,-1.8c3.2,0 6.1,0.7 8.6,2.2c2.5,1.5 4.5,3.6 6,6.4c1.6,-2.7 3.8,-4.8 6.5,-6.3c2.7,-1.5 5.8,-2.3 9.2,-2.3c2.5,0 4.7,0.4 6.8,1.3c2.1,0.9 3.9,2.2 5.4,3.9c1.5,1.7 2.7,3.8 3.6,6.3c0.9,2.5 1.3,5.4 1.3,8.7l0,28l-8.5,0l0,-28c0,-4 -0.9,-7.1 -2.8,-9.1c-1.9,-2 -4.4,-3 -7.6,-3c-3.2,0 -5.9,1.1 -8,3.2c-2.1,2.1 -3.2,4.9 -3.4,8.3l0,28.4l-8.5,0l0,-28c0,-4 -0.9,-7.1 -2.8,-9.1c-1.9,-2 -4.4,-3 -7.6,-3c-3.2,0 -5.9,1 -8,3.1c-2.1,2.1 -3.2,4.9 -3.4,8.4l0,28.4l-8.6,0l0,-47z" stroke-miterlimit="10" stroke-width="0.25" stroke="#00AEEF" fill="#27AAE1"/>
   <path id="svg_18" d="m585.1,185.4c-6.1,0 -10.7,-1.4 -13.7,-4.1c-3,-2.7 -4.8,-6.5 -5.3,-11.4l8.9,0c0.3,1.4 0.6,2.6 1,3.6c0.4,1 1,1.8 1.8,2.5c0.8,0.6 1.7,1.1 2.9,1.4c1.2,0.3 2.7,0.4 4.4,0.4c3.9,0 6.5,-0.6 7.9,-1.7c1.4,-1.1 2.1,-2.7 2.1,-4.8c0,-1.9 -0.7,-3.3 -2.1,-4.3c-1.4,-1 -3.1,-1.8 -5.2,-2.3s-4.3,-1.1 -6.7,-1.6c-2.4,-0.5 -4.6,-1.2 -6.7,-2.1c-2.1,-0.9 -3.8,-2.3 -5.2,-3.9c-1.4,-1.7 -2.1,-4 -2.1,-7.1c0,-2 0.4,-3.8 1.1,-5.4c0.7,-1.6 1.8,-3.1 3.3,-4.3c1.5,-1.2 3.4,-2.1 5.6,-2.8c2.3,-0.7 4.9,-1 8,-1c5.7,0 10,1.3 12.9,3.9c2.9,2.6 4.6,6.1 5.1,10.6l-8.9,0c-0.5,-2.3 -1.4,-4.1 -2.7,-5.2c-1.3,-1.1 -3.4,-1.7 -6.4,-1.7c-3.4,0 -5.8,0.5 -7.1,1.6c-1.3,1.1 -2,2.5 -2,4.4c0,1.7 0.7,3 2.1,3.7c1.4,0.8 3.1,1.4 5.2,1.9c2.1,0.5 4.3,1 6.7,1.5c2.4,0.5 4.6,1.2 6.7,2.2c2.1,1 3.8,2.4 5.2,4.3c1.4,1.9 2.1,4.4 2.1,7.6c0,4.1 -1.5,7.5 -4.5,10.1c-3.1,2.7 -7.9,4 -14.4,4z" stroke-miterlimit="10" stroke-width="0.25" stroke="#00AEEF" fill="#27AAE1"/>
  </g>
  <rect id="svg_19" height="21.1" width="21.1" fill="#316CB5" y="3" x="123.2"/>
  <rect id="svg_20" height="21.1" width="21.1" fill="#316CB5" y="26" x="123.2"/>
  <rect id="svg_21" height="21.1" width="21.1" fill="#316CB5" y="49.1" x="123.2"/>
  <rect id="svg_22" height="21.1" width="21.1" fill="#316CB5" y="72.1" x="123.2"/>
  <rect id="svg_23" height="21.1" width="21.1" fill="#316CB5" y="95.1" x="123.2"/>
  <rect id="svg_24" height="21.1" width="21.1" fill="#27AAE1" y="118.2" x="123.2"/>
  <rect id="svg_25" height="21.1" width="21.1" fill="#27AAE1" y="141.2" x="123.2"/>
  <rect id="svg_26" height="21.1" width="21.1" fill="#27AAE1" y="164.2" x="123.2"/>
  <rect id="svg_27" height="21.1" width="21.1" fill="#316CB5" y="26" x="100.1"/>
  <rect id="svg_28" height="21.1" width="21.1" fill="#316CB5" y="72.1" x="100.1"/>
  <rect id="svg_29" height="21.1" width="21.1" fill="#27AAE1" y="95.1" x="100.1"/>
  <rect id="svg_30" height="21.1" width="21.1" fill="#27AAE1" y="118.2" x="100.1"/>
  <rect id="svg_31" height="21.1" width="21.1" fill="#27AAE1" y="164.2" x="100.1"/>
  <rect id="svg_32" height="21.1" width="21.1" fill="#316CB5" y="3" x="77.1"/>
  <rect id="svg_33" height="21.1" width="21.1" fill="#316CB5" y="49.1" x="77.1"/>
  <rect id="svg_34" height="21.1" width="21.1" fill="#27AAE1" y="72.1" x="77.1"/>
  <rect id="svg_35" height="21.1" width="21.1" fill="#27AAE1" y="118.2" x="77.1"/>
  <rect id="svg_36" height="21.1" width="21.1" fill="#27AAE1" y="141.2" x="77.1"/>
  <rect id="svg_37" height="21.1" width="21.1" fill="#316CB5" y="26" x="54.1"/>
  <rect id="svg_38" height="21.1" width="21.1" fill="#316CB5" y="49.1" x="54.1"/>
  <rect id="svg_39" height="21.1" width="21.1" fill="#27AAE1" y="118.2" x="54.1"/>
  <rect id="svg_40" height="21.1" width="21.1" fill="#27AAE1" y="164.2" x="54.1"/>
  <rect id="svg_41" height="21.1" width="21.1" fill="#27AAE1" y="95.1" x="31"/>
  <rect id="svg_42" height="21.1" width="21.1" fill="#27AAE1" y="141.2" x="31"/>
  <rect id="svg_43" height="21.1" width="21.1" fill="#27AAE1" y="164.2" x="31"/>
  <rect id="svg_44" height="21.1" width="21.1" fill="#27AAE1" y="141.2" x="8"/>
  <rect id="svg_45" height="21.1" width="21.1" fill="#316CB5" y="118.2" x="146.2"/>
  <rect id="svg_46" height="21.1" width="21.1" fill="#27AAE1" y="141.2" x="146.2"/>
  <rect id="svg_47" height="21.1" width="21.1" fill="#27AAE1" y="164.2" x="146.2"/>
  <rect id="svg_48" height="21.1" width="21.1" fill="#316CB5" y="95.1" x="146.2"/>
 </g>
</svg>