<?xml version="1.0" standalone="no"?>
<!DOCTYPE svg PUBLIC "-//W3C//DTD SVG 1.1//EN" "http://www.w3.org/Graphics/SVG/1.1/DTD/svg11.dtd" >
<svg xmlns="http://www.w3.org/2000/svg">
<metadata>Generated by IcoMoon</metadata>
<defs>
<font id="icomoon" horiz-adv-x="1024">
<font-face units-per-em="1024" ascent="960" descent="-64" />
<missing-glyph horiz-adv-x="1024" />
<glyph unicode="&#x20;" horiz-adv-x="512" d="" />
<glyph unicode="&#xe900;" glyph-name="Access" d="M501.056 894.080c7.040 2.56 14.784 2.56 21.888 0l352-128c12.672-4.608 21.056-16.64 21.056-30.080v-277.312c0-142.72-97.536-257.536-187.328-333.76-45.632-38.72-91.136-69.056-125.12-89.664-17.024-10.304-31.296-18.24-41.344-23.68-5.056-2.688-9.024-4.8-11.776-6.208-1.408-0.704-2.496-1.28-3.2-1.6l-1.152-0.576-0.064-0.064c0 0-0.064 0-14.016 28.8-14.336-28.608-14.336-28.608-14.336-28.608l-1.28 0.64c-0.768 0.384-1.792 0.896-3.136 1.6-2.688 1.408-6.592 3.52-11.456 6.208-9.792 5.44-23.616 13.376-40.128 23.68-33.024 20.608-77.12 50.944-121.472 89.728-87.104 76.224-181.312 190.784-181.568 332.8l-10.624 276.736c-0.512 13.888 8 26.56 21.056 31.296l352 128zM512 32l-14.336-28.608c8.896-4.416 19.392-4.48 28.352-0.128l-14.016 28.8zM512.256 68.16c9.216 4.928 22.336 12.288 38.208 21.888 32 19.392 74.496 47.744 116.864 83.712 86.208 73.152 164.736 171.648 164.736 284.928v254.912l-320 116.352-319.104-116.032 9.792-254.016c0-0.384 0-0.832 0-1.216 0-113.728 76.288-212.224 159.744-285.248 41.024-35.904 82.24-64.256 113.216-83.584 15.104-9.472 27.712-16.704 36.608-21.632z" />
<glyph unicode="&#xe901;" glyph-name="Access1" d="M501.056 894.080c7.040 2.56 14.784 2.56 21.888 0l352-128c12.672-4.608 21.056-16.64 21.056-30.080v-277.312c0-142.72-97.536-257.536-187.328-333.76-45.632-38.72-91.136-69.056-125.12-89.664-17.024-10.304-31.296-18.24-41.344-23.68-5.056-2.688-9.024-4.8-11.776-6.208-1.408-0.704-2.496-1.28-3.2-1.6l-1.152-0.576-0.064-0.064c0 0-0.064 0-14.016 28.8-14.336-28.608-14.336-28.608-14.336-28.608l-1.28 0.64c-0.768 0.384-1.792 0.896-3.136 1.6-2.688 1.408-6.592 3.52-11.456 6.208-9.792 5.44-23.616 13.376-40.128 23.68-33.024 20.608-77.12 50.944-121.472 89.728-87.104 76.224-181.312 190.784-181.568 332.8l-10.624 276.736c-0.512 13.888 8 26.56 21.056 31.296l352 128zM512 32l-14.336-28.608c8.896-4.416 19.392-4.48 28.352-0.128l-14.016 28.8zM512.256 68.16c9.216 4.928 22.336 12.288 38.208 21.888 32 19.392 74.496 47.744 116.864 83.712 86.208 73.152 164.736 171.648 164.736 284.928v254.912l-320 116.352-319.104-116.032 9.792-254.016c0-0.384 0-0.832 0-1.216 0-113.728 76.288-212.224 159.744-285.248 41.024-35.904 82.24-64.256 113.216-83.584 15.104-9.472 27.712-16.704 36.608-21.632z" />
<glyph unicode="&#xe902;" glyph-name="AddISO" d="M832 384c0 35.328-28.672 64-64 64s-64-28.672-64-64v-128h-128c-35.328 0-64-28.672-64-64s28.672-64 64-64h128v-128c0-35.328 28.672-64 64-64s64 28.672 64 64v128h128c35.328 0 64 28.672 64 64s-28.672 64-64 64h-128v128zM894.464 455.168c36.16 0.704 65.408 30.72 59.456 66.368-10.88 65.216-36.096 127.552-74.176 182.272-50.624 72.768-121.664 128.832-204.096 161.216s-172.736 39.552-259.264 20.608-165.568-63.040-227.072-126.912c-61.44-63.808-102.656-144.448-118.272-231.616s-5.12-177.088 30.336-258.304c35.456-81.216 94.144-150.080 168.768-197.888 56.128-36.032 119.36-58.88 184.896-67.264 35.904-4.608 64.768 25.728 64.128 61.952v0c-0.704 36.16-30.848 64.256-66.368 71.040-39.616 7.552-77.632 22.592-111.936 44.608-52.8 33.856-94.336 82.56-119.424 140.032s-32.576 121.088-21.504 182.784 40.192 118.784 83.712 163.904c43.52 45.184 99.392 76.416 160.64 89.792s125.12 8.32 183.488-14.592c58.368-22.912 108.608-62.592 144.448-114.048 23.296-33.472 39.744-70.848 48.768-110.208 8.064-35.264 37.248-64.32 73.472-63.68v0z" />
<glyph unicode="&#xe903;" glyph-name="alert" d="M512 576c35.328 0 64-28.672 64-64v-128c0-35.328-28.672-64-64-64s-64 28.672-64 64v128c0 35.328 28.672 64 64 64zM448 192c0 35.328 28.672 64 64 64h0.64c35.328 0 64-28.672 64-64s-28.672-64-64-64h-0.64c-35.328 0-64 28.672-64 64zM512 960c24.256 0 46.4-13.696 57.216-35.392l448-896c9.92-19.84 8.896-43.392-2.816-62.272s-32.256-30.336-54.464-30.336h-896c-22.208 0-42.752 11.52-54.464 30.336s-12.736 42.432-2.816 62.272l448 896c10.816 21.696 33.024 35.392 57.216 35.392zM167.552 64h688.896l-344.448 688.896-344.448-688.896z" />
<glyph unicode="&#xe904;" glyph-name="alert-circle" d="M512 832c-212.096 0-384-171.904-384-384s171.904-384 384-384c212.096 0 384 171.904 384 384s-171.904 384-384 384zM42.656 448c0 259.2 210.144 469.344 469.344 469.344s469.344-210.144 469.344-469.344c0-259.2-210.144-469.344-469.344-469.344s-469.344 210.144-469.344 469.344zM512 661.344c23.552 0 42.656-19.104 42.656-42.656v-170.656c0-23.552-19.104-42.656-42.656-42.656s-42.656 19.104-42.656 42.656v170.656c0 23.552 19.104 42.656 42.656 42.656zM469.344 277.344c0 23.552 19.104 42.656 42.656 42.656h0.416c23.552 0 42.656-19.104 42.656-42.656s-19.104-42.656-42.656-42.656h-0.416c-23.552 0-42.656 19.104-42.656 42.656z" />
<glyph unicode="&#xe905;" glyph-name="alert-triangle" d="M449.184 862.592c19.168 10.784 40.8 16.48 62.816 16.48s43.648-5.664 62.816-16.48c19.168-10.784 35.232-26.336 46.624-45.152l0.128-0.224 361.728-603.904c11.168-19.36 17.12-41.312 17.152-63.648s-5.728-44.32-16.8-63.744-27.008-35.584-46.304-46.944c-19.296-11.36-41.184-17.408-63.488-17.664h-723.712c-22.368 0.256-44.256 6.368-63.488 17.664s-35.232 27.52-46.304 46.944-16.864 41.376-16.8 63.744c0.032 22.368 5.984 44.288 17.152 63.648l0.352 0.608 361.376 603.296 36.608-21.92-36.48 22.144c11.392 18.816 27.488 34.336 46.624 45.152zM475.552 773.248l-361.12-602.848c-3.616-6.4-5.536-13.6-5.6-20.992 0-7.456 1.92-14.752 5.6-21.248s8.992-11.872 15.456-15.648c6.368-3.744 13.6-5.76 20.992-5.888h722.208c7.392 0.128 14.592 2.144 20.992 5.888 6.4 3.808 11.744 9.184 15.456 15.648s5.632 13.792 5.6 21.248c0 7.328-1.92 14.592-5.6 20.96l-361.056 602.752c0 0.032-0.032 0.032-0.032 0.096-3.808 6.24-9.12 11.392-15.488 14.976s-13.6 5.504-20.96 5.504-14.56-1.888-20.96-5.504c-6.368-3.584-11.68-8.736-15.488-14.976zM512 618.656c23.552 0 42.656-19.104 42.656-42.656v-170.656c0-23.552-19.104-42.656-42.656-42.656s-42.656 19.104-42.656 42.656v170.656c0 23.552 19.104 42.656 42.656 42.656zM469.344 234.656c0 23.552 19.104 42.656 42.656 42.656h0.416c23.552 0 42.656-19.104 42.656-42.656s-19.104-42.656-42.656-42.656h-0.416c-23.552 0-42.656 19.104-42.656 42.656z" />
<glyph unicode="&#xe906;" glyph-name="Bells" d="M245.952 844.224c69.44 68.736 164.928 115.776 266.048 115.776s196.608-47.040 266.048-115.776c69.504-68.864 117.952-164.48 117.952-268.224 0-116.8 28.992-184.128 53.248-220.48 12.288-18.496 24.064-29.952 31.744-36.352 3.84-3.2 6.72-5.184 8.128-6.080 0.384-0.256 0.64-0.448 0.832-0.512 0 0 0 0 0 0 25.664-13.568 39.040-42.88 32.32-71.296-6.848-28.864-32.576-49.28-62.272-49.28h-896c-29.696 0-55.488 20.416-62.272 49.28-6.72 28.416 6.656 57.664 32.32 71.296 0.192 0.128 0.448 0.256 0.832 0.512 1.408 0.896 4.288 2.88 8.128 6.080 7.68 6.4 19.392 17.856 31.744 36.352 24.256 36.352 53.248 103.68 53.248 220.48 0 103.68 48.448 199.36 117.952 268.224zM35.2 313.152c0 0 0 0 0 0s0.128 0.064 0.192 0.064zM35.2 313.152v0zM821.888 320c-30.4 59.008-53.888 141.888-53.888 256 0 63.616-30.208 127.936-80.064 177.28-49.92 49.408-114.368 78.72-176 78.72s-126.080-29.312-176-78.72c-49.792-49.344-80-113.664-80-177.28 0-114.112-23.552-196.992-53.888-256h619.84zM440.32 94.4c-16.32 30.4-54.016 42.432-85.056 26.816-31.616-15.872-44.352-54.336-28.48-85.888l57.216 28.672c-57.216-28.672-57.216-28.736-57.152-28.8l0.064-0.064 0.064-0.128 0.128-0.32 0.384-0.704c0.256-0.512 0.576-1.024 0.896-1.664 0.704-1.216 1.536-2.688 2.56-4.416 2.048-3.392 4.864-7.616 8.448-12.416 7.232-9.6 17.856-21.632 32.768-33.472 30.528-24.32 76.416-45.824 139.904-45.824s109.376 21.504 139.904 45.824c14.848 11.84 25.536 23.872 32.768 33.472 3.584 4.8 6.4 9.024 8.448 12.416 1.024 1.664 1.856 3.136 2.56 4.416 0.32 0.64 0.64 1.152 0.896 1.664l0.384 0.704 0.128 0.32 0.064 0.128 0.064 0.064c0 0.064 0.064 0.064-57.152 28.8l57.216-28.672c15.872 31.616 3.072 70.080-28.48 85.888-31.040 15.552-68.672 3.52-85.056-26.816-0.192-0.32-0.64-0.96-1.28-1.856-1.792-2.368-5.12-6.272-10.24-10.368-9.472-7.552-27.584-17.92-60.096-17.92s-50.624 10.368-60.096 17.92c-5.12 4.096-8.448 8-10.24 10.368-0.704 0.896-1.088 1.536-1.28 1.856z" />
<glyph unicode="&#xe907;" glyph-name="layout" d="M810.667 21.333h-597.333c-72.533 0-128 55.467-128 128v597.333c0 72.533 55.467 128 128 128h597.333c72.533 0 128-55.467 128-128v-597.333c0-72.533-55.467-128-128-128zM213.333 789.333c-25.6 0-42.667-17.067-42.667-42.667v-597.333c0-25.6 17.067-42.667 42.667-42.667h597.333c25.6 0 42.667 17.067 42.667 42.667v597.333c0 25.6-17.067 42.667-42.667 42.667h-597.333zM170.667 618.667h682.667v-85.333h-682.667v85.333zM341.333 533.333h85.333v-426.667h-85.333v426.667z" />
<glyph unicode="&#xe908;" glyph-name="home" d="M810.667-21.333h-597.333c-72.533 0-128 55.467-128 128v469.333c0 12.8 4.267 25.6 17.067 34.133l384 298.667c17.067 12.8 38.4 12.8 51.2 0l384-298.667c12.8-8.533 17.067-21.333 17.067-34.133v-469.333c0-72.533-55.467-128-128-128zM170.667 554.667v-448c0-25.6 17.067-42.667 42.667-42.667h597.333c25.6 0 42.667 17.067 42.667 42.667v448l-341.333 264.533-341.333-264.533zM640-21.333c-25.6 0-42.667 17.067-42.667 42.667v384h-170.667v-384c0-25.6-17.067-42.667-42.667-42.667s-42.667 17.067-42.667 42.667v426.667c0 25.6 17.067 42.667 42.667 42.667h256c25.6 0 42.667-17.067 42.667-42.667v-426.667c0-25.6-17.067-42.667-42.667-42.667z" />
<glyph unicode="&#xe909;" glyph-name="lock" d="M810.667-21.333h-597.333c-72.533 0-128 55.467-128 128v298.667c0 72.533 55.467 128 128 128h597.333c72.533 0 128-55.467 128-128v-298.667c0-72.533-55.467-128-128-128zM213.333 448c-25.6 0-42.667-17.067-42.667-42.667v-298.667c0-25.6 17.067-42.667 42.667-42.667h597.333c25.6 0 42.667 17.067 42.667 42.667v298.667c0 25.6-17.067 42.667-42.667 42.667h-597.333zM725.333 448c-25.6 0-42.667 17.067-42.667 42.667v170.667c0 93.867-76.8 170.667-170.667 170.667s-170.667-76.8-170.667-170.667v-170.667c0-25.6-17.067-42.667-42.667-42.667s-42.667 17.067-42.667 42.667v170.667c0 140.8 115.2 256 256 256s256-115.2 256-256v-170.667c0-25.6-17.067-42.667-42.667-42.667z" />
<glyph unicode="&#xe90b;" glyph-name="ChDown" d="M146.752 685.248c25.024 25.024 65.536 25.024 90.496 0l274.752-274.752 274.752 274.752c24.96 25.024 65.536 25.024 90.496 0s24.96-65.536 0-90.496l-320-320c-25.024-24.96-65.536-24.96-90.496 0l-320 320c-25.024 25.024-25.024 65.536 0 90.496z" />
<glyph unicode="&#xe90c;" glyph-name="check" d="M883.488 734.176c16.64-16.672 16.64-43.68 0-60.32l-469.344-469.344c-16.672-16.64-43.68-16.64-60.32 0l-213.344 213.344c-16.672 16.64-16.672 43.68 0 60.32s43.68 16.64 60.32 0l183.168-183.168 439.168 439.168c16.64 16.672 43.68 16.672 60.32 0z" />
<glyph unicode="&#xe90d;" glyph-name="check-circle" d="M668.288 799.008c-75.648 33.696-160.128 42.080-240.896 23.808s-153.472-62.112-207.264-125.056-85.792-141.6-91.264-224.224c-5.472-82.656 15.968-164.832 61.024-234.272s111.392-122.496 189.056-151.2c77.664-28.672 162.56-31.52 241.952-8.032s149.12 71.968 198.688 138.336c49.568 66.304 76.416 146.912 76.448 229.728v39.2c0 23.552 19.104 42.656 42.656 42.656s42.656-19.104 42.656-42.656v-39.264c-0.032-101.216-32.8-199.712-93.44-280.8s-145.792-140.384-242.816-169.056c-97.056-28.672-200.8-25.248-295.712 9.824s-176 99.872-231.072 184.8c-55.072 84.896-81.248 185.344-74.592 286.336s45.792 197.12 111.52 274.048c65.76 76.928 154.624 130.56 253.344 152.864s201.984 12.128 294.432-29.088c21.504-9.6 31.2-34.816 21.6-56.32s-34.816-31.2-56.32-21.6zM968.832 819.488c16.672-16.64 16.672-43.648 0.032-60.32l-426.656-427.104c-8.032-8.032-18.848-12.512-30.176-12.512s-22.176 4.48-30.176 12.512l-128 128c-16.672 16.64-16.672 43.68 0 60.32s43.68 16.672 60.32 0l97.792-97.792 396.512 396.896c16.64 16.672 43.648 16.672 60.32 0.032z" />
<glyph unicode="&#xe90e;" glyph-name="CheckMark" d="M329.344 470.656c12.48 12.48 32.768 12.48 45.248 0l96-96c12.48-12.48 12.48-32.768 0-45.248s-32.768-12.48-45.248 0l-96 96c-12.48 12.48-12.48 32.768 0 45.248zM423.68 331.2c-11.52 13.44-9.92 33.6 3.456 45.12l224 192c13.44 11.52 33.6 9.92 45.12-3.456s9.92-33.6-3.456-45.12l-224-192c-13.44-11.52-33.6-9.92-45.12 3.456z" />
<glyph unicode="&#xe90f;" glyph-name="ChUP" d="M877.248 274.752c-24.96-24.96-65.536-24.96-90.496 0l-274.752 274.752-274.752-274.752c-25.024-24.96-65.536-24.96-90.496 0s-25.024 65.536 0 90.496l320 320c25.024 25.024 65.536 25.024 90.496 0l320-320c24.96-25.024 24.96-65.536 0-90.496z" />
<glyph unicode="&#xe910;" glyph-name="Close" d="M798.176 734.176c16.64-16.672 16.64-43.68 0-60.32l-512-512c-16.672-16.64-43.68-16.64-60.32 0s-16.672 43.68 0 60.32l512 512c16.64 16.672 43.68 16.672 60.32 0zM225.824 734.176c16.672 16.672 43.68 16.672 60.32 0l512-512c16.64-16.64 16.64-43.68 0-60.32s-43.68-16.64-60.32 0l-512 512c-16.672 16.672-16.672 43.68 0 60.32z" />
<glyph unicode="&#xe911;" glyph-name="Close1" d="M813.248 749.248c24.96-25.024 24.96-65.536 0-90.496l-512-512c-25.024-24.96-65.536-24.96-90.496 0s-25.024 65.536 0 90.496l512 512c24.96 25.024 65.536 25.024 90.496 0zM210.752 749.248c25.024 25.024 65.536 25.024 90.496 0l512-512c24.96-24.96 24.96-65.536 0-90.496s-65.536-24.96-90.496 0l-512 512c-25.024 25.024-25.024 65.536 0 90.496z" />
<glyph unicode="&#xe912;" glyph-name="corner-right-down" d="M585.344 73.344c12.48-12.48 32.768-12.48 45.248 0l192 192c12.48 12.48 12.48 32.768 0 45.248s-32.768 12.48-45.248 0l-169.344-169.344-169.344 169.344c-12.48 12.48-32.768 12.48-45.248 0s-12.48-32.768 0-45.248l192-192zM608 64c17.664 0 32 14.336 32 32v512.128c0 123.712-100.288 223.872-224 223.872h-256c-17.664 0-32-14.336-32-32s14.336-32 32-32h256c88.384 0 160-71.552 160-159.872v-512.128c0-17.664 14.336-32 32-32z" />
<glyph unicode="&#xe913;" glyph-name="corner-right-up" d="M585.344 822.656c12.48 12.48 32.768 12.48 45.248 0l192-192c12.48-12.48 12.48-32.768 0-45.248s-32.768-12.48-45.248 0l-169.344 169.344-169.344-169.344c-12.48-12.48-32.768-12.48-45.248 0s-12.48 32.768 0 45.248l192 192zM608 832c17.664 0 32-14.336 32-32v-512.128c0-123.712-100.288-223.872-224-223.872h-256c-17.664 0-32 14.336-32 32s14.336 32 32 32h256c88.384 0 160 71.552 160 159.872v512.128c0 17.664 14.336 32 32 32z" />
<glyph unicode="&#xe914;" glyph-name="Create" d="M512 960c35.328 0 64-28.672 64-64v-896c0-35.328-28.672-64-64-64s-64 28.672-64 64v896c0 35.328 28.672 64 64 64zM0 448c0 35.328 28.672 64 64 64h896c35.328 0 64-28.672 64-64s-28.672-64-64-64h-896c-35.328 0-64 28.672-64 64z" />
<glyph unicode="&#xe915;" glyph-name="Donner" d="M640 832c0-70.72-57.28-128-128-128s-128 57.28-128 128c0 70.72 57.28 128 128 128s128-57.28 128-128zM640 448c0-70.72-57.28-128-128-128s-128 57.28-128 128c0 70.72 57.28 128 128 128s128-57.28 128-128zM640 64c0-70.72-57.28-128-128-128s-128 57.28-128 128c0 70.72 57.28 128 128 128s128-57.28 128-128z" />
<glyph unicode="&#xe916;" glyph-name="Down" d="M640 576h-256c-26.368 0-41.408-30.080-25.6-51.2l128-170.688c12.8-17.088 38.4-17.088 51.2 0l128 170.688c15.808 21.12 0.768 51.2-25.6 51.2z" />
<glyph unicode="&#xe917;" glyph-name="Edit" d="M85.344 661.344c0 70.048 57.952 128 128 128h256c23.552 0 42.656-19.104 42.656-42.656s-19.104-42.656-42.656-42.656h-256c-22.912 0-42.656-19.744-42.656-42.656v-512c0-22.912 19.744-42.656 42.656-42.656h512c22.912 0 42.656 19.744 42.656 42.656v256c0 23.552 19.104 42.656 42.656 42.656s42.656-19.104 42.656-42.656v-256c0-70.048-57.952-128-128-128h-512c-70.048 0-128 57.952-128 128v512zM823.168 759.168c-18.176 18.176-49.44 18.176-67.68 0l-332.96-332.96-22.56-90.208 90.208 22.56 332.96 332.96c18.176 18.176 18.176 49.44 0 67.68zM695.168 819.488c51.488 51.552 136.832 51.552 188.32 0s51.488-136.832 0-188.32l-341.344-341.344c-5.472-5.472-12.32-9.344-19.84-11.232l-170.656-42.656c-14.56-3.616-29.92 0.64-40.544 11.232s-14.848 25.984-11.232 40.544l42.656 170.656c1.888 7.52 5.76 14.336 11.232 19.84l341.344 341.344z" />
<glyph unicode="&#xe918;" glyph-name="Edit1" d="M667.584 677.376c-22.656-2.304-40.448-12.736-46.336-18.688l-336.896-336.896-16.896-118.4 118.4 16.896 336.896 336.896c5.888 5.888 16.32 23.68 18.624 46.336 2.048 20.224-2.752 39.232-18.624 55.168v0c-15.936 15.936-34.944 20.736-55.168 18.688zM654.592 804.736c51.008 5.248 110.656-7.424 158.656-55.488v0c48.064-48.064 60.672-107.648 55.488-158.72-4.992-48.64-26.496-94.848-55.488-123.84l-352-352c-9.792-9.792-22.464-16.128-36.224-18.112l-224-32c-19.968-2.816-40.064 3.84-54.336 18.112s-20.928 34.368-18.112 54.272l32 224c1.984 13.696 8.32 26.432 18.112 36.224l352 352c28.992 28.992 75.2 50.496 123.84 55.488zM658.752 402.752l-192 192 90.496 90.496 192-192-90.496-90.496z" />
<glyph unicode="&#xe919;" glyph-name="filter" d="M67.008 813.568c5.248 11.264 16.576 18.432 28.992 18.432h832c12.416 0 23.68-7.168 28.992-18.432s3.584-24.512-4.416-34.048l-312.576-375.104v-372.416c0-11.776-6.464-22.656-16.896-28.224s-23.040-4.992-32.832 1.6l-192 128c-8.896 5.952-14.272 15.936-14.272 26.624v244.416l-312.576 375.104c-7.936 9.536-9.664 22.784-4.416 34.048zM164.352 768l276.288-331.52c4.8-5.76 7.424-12.992 7.424-20.48v-238.848l128-85.312v324.224c0 7.488 2.624 14.72 7.424 20.48l276.288 331.52h-695.36z" />
<glyph unicode="&#xe91a;" glyph-name="Groups" d="M128 800c0 17.664 14.336 32 32 32h256c17.664 0 32-14.336 32-32v-256c0-17.664-14.336-32-32-32h-256c-17.664 0-32 14.336-32 32v256zM192 768v-192h192v192h-192zM576 800c0 17.664 14.336 32 32 32h256c17.664 0 32-14.336 32-32v-256c0-17.664-14.336-32-32-32h-256c-17.664 0-32 14.336-32 32v256zM640 768v-192h192v192h-192zM128 352c0 17.664 14.336 32 32 32h256c17.664 0 32-14.336 32-32v-256c0-17.664-14.336-32-32-32h-256c-17.664 0-32 14.336-32 32v256zM192 320v-192h192v192h-192zM576 352c0 17.664 14.336 32 32 32h256c17.664 0 32-14.336 32-32v-256c0-17.664-14.336-32-32-32h-256c-17.664 0-32 14.336-32 32v256zM640 320v-192h192v192h-192z" />
<glyph unicode="&#xe91b;" glyph-name="Groups1" d="M128 800c0 17.664 14.336 32 32 32h256c17.664 0 32-14.336 32-32v-256c0-17.664-14.336-32-32-32h-256c-17.664 0-32 14.336-32 32v256zM192 768v-192h192v192h-192zM576 800c0 17.664 14.336 32 32 32h256c17.664 0 32-14.336 32-32v-256c0-17.664-14.336-32-32-32h-256c-17.664 0-32 14.336-32 32v256zM640 768v-192h192v192h-192zM128 352c0 17.664 14.336 32 32 32h256c17.664 0 32-14.336 32-32v-256c0-17.664-14.336-32-32-32h-256c-17.664 0-32 14.336-32 32v256zM192 320v-192h192v192h-192zM576 352c0 17.664 14.336 32 32 32h256c17.664 0 32-14.336 32-32v-256c0-17.664-14.336-32-32-32h-256c-17.664 0-32 14.336-32 32v256zM640 320v-192h192v192h-192z" />
<glyph unicode="&#xe91c;" glyph-name="Import" d="M128 384c35.328 0 64-28.672 64-64v-170.688c0-5.632 2.24-11.072 6.272-15.104s9.408-6.272 15.104-6.272h597.312c5.632 0 11.072 2.24 15.104 6.272s6.272 9.408 6.272 15.104v170.688c0 35.328 28.672 64 64 64s64-28.672 64-64v-170.688c0-39.616-15.744-77.568-43.712-105.6s-65.984-43.712-105.6-43.712h-597.312c-39.616 0-77.568 15.744-105.6 43.712s-43.712 65.984-43.712 105.6v170.688c0 35.328 28.672 64 64 64zM210.752 621.248c25.024 25.024 65.536 25.024 90.496 0l210.752-210.752 210.752 210.752c24.96 25.024 65.536 25.024 90.496 0s24.96-65.536 0-90.496l-256-256c-12.032-12.032-28.288-18.752-45.248-18.752s-33.28 6.72-45.248 18.752l-256 256c-25.024 25.024-25.024 65.536 0 90.496zM512 896c35.328 0 64-28.672 64-64v-512c0-35.328-28.672-64-64-64s-64 28.672-64 64v512c0 35.328 28.672 64 64 64z" />
<glyph unicode="&#xe91d;" glyph-name="ISO" d="M512 0c-247.424 0-448 200.576-448 448s200.576 448 448 448c247.424 0 448-200.576 448-448s-200.576-448-448-448zM512 64c212.096 0 384 171.904 384 384s-171.904 384-384 384c-212.096 0-384-171.904-384-384s171.904-384 384-384zM512 320c-70.72 0-128 57.28-128 128s57.28 128 128 128c70.72 0 128-57.28 128-128s-57.28-128-128-128zM512 384c35.328 0 64 28.672 64 64s-28.672 64-64 64c-35.328 0-64-28.672-64-64s28.672-64 64-64z" />
<glyph unicode="&#xe91e;" glyph-name="ISO1" d="M512 0c-247.424 0-448 200.576-448 448s200.576 448 448 448c247.424 0 448-200.576 448-448s-200.576-448-448-448zM512 64c212.096 0 384 171.904 384 384s-171.904 384-384 384c-212.096 0-384-171.904-384-384s171.904-384 384-384zM512 320c-70.72 0-128 57.28-128 128s57.28 128 128 128c70.72 0 128-57.28 128-128s-57.28-128-128-128zM512 384c35.328 0 64 28.672 64 64s-28.672 64-64 64c-35.328 0-64-28.672-64-64s28.672-64 64-64z" />
<glyph unicode="&#xe91f;" glyph-name="log" d="M97.344 926.72c28.416 28.416 66.048 33.344 94.656 33.344h448c16.96 0 33.28-6.72 45.248-18.752l256-256c12.032-12.032 18.752-28.288 18.752-45.248v-576c0-28.608-4.864-66.24-33.344-94.656s-66.048-33.344-94.656-33.344h-640c-28.608 0-66.24 4.864-94.656 33.28s-33.344 66.048-33.344 94.72v768c0 28.608 4.864 66.24 33.344 94.656zM613.504 832.064h-421.504v-768h640v549.504l-218.496 218.496zM576 960.064c35.328 0 64-28.672 64-64v-256h256c35.328 0 64-28.672 64-64s-28.672-64-64-64h-320c-35.328 0-64 28.672-64 64v320c0 35.328 28.672 64 64 64zM256 383.936c0 35.328 28.672 64 64 64h384c35.328 0 64-28.672 64-64s-28.672-64-64-64h-384c-35.328 0-64 28.672-64 64zM256 192.064c0 35.328 28.672 64 64 64h384c35.328 0 64-28.672 64-64s-28.672-64-64-64h-384c-35.328 0-64 28.672-64 64zM256 576c0 35.328 28.672 64 64 64h64c35.328 0 64-28.672 64-64s-28.672-64-64-64h-64c-35.328 0-64 28.672-64 64z" />
<glyph unicode="&#xe920;" glyph-name="logOut" d="M213.344 789.344c-11.296 0-22.176-4.48-30.176-12.512s-12.512-18.848-12.512-30.176v-597.344c0-11.296 4.48-22.176 12.512-30.176s18.848-12.512 30.176-12.512h170.656c23.552 0 42.656-19.104 42.656-42.656s-19.104-42.656-42.656-42.656h-170.656c-33.952 0-66.528 13.472-90.496 37.504s-37.504 56.576-37.504 90.496v597.344c0 33.952 13.472 66.528 37.504 90.496s56.576 37.504 90.496 37.504h170.656c23.552 0 42.656-19.104 42.656-42.656s-19.104-42.656-42.656-42.656h-170.656zM652.512 691.488c16.64 16.672 43.68 16.672 60.32 0l213.344-213.344c16.64-16.64 16.64-43.68 0-60.32l-213.344-213.344c-16.64-16.64-43.68-16.64-60.32 0s-16.64 43.68 0 60.32l183.168 183.168-183.168 183.168c-16.64 16.672-16.64 43.68 0 60.32zM341.344 448c0 23.552 19.104 42.656 42.656 42.656h512c23.552 0 42.656-19.104 42.656-42.656s-19.104-42.656-42.656-42.656h-512c-23.552 0-42.656 19.104-42.656 42.656z" />
<glyph unicode="&#xe921;" glyph-name="Menu" d="M64 448c0 35.328 28.672 64 64 64h768c35.328 0 64-28.672 64-64s-28.672-64-64-64h-768c-35.328 0-64 28.672-64 64zM64 704c0 35.328 28.672 64 64 64h768c35.328 0 64-28.672 64-64s-28.672-64-64-64h-768c-35.328 0-64 28.672-64 64zM64 192c0 35.328 28.672 64 64 64h768c35.328 0 64-28.672 64-64s-28.672-64-64-64h-768c-35.328 0-64 28.672-64 64z" />
<glyph unicode="&#xe922;" glyph-name="Menu1" d="M64 448c0 35.328 28.672 64 64 64h768c35.328 0 64-28.672 64-64s-28.672-64-64-64h-768c-35.328 0-64 28.672-64 64zM64 704c0 35.328 28.672 64 64 64h768c35.328 0 64-28.672 64-64s-28.672-64-64-64h-768c-35.328 0-64 28.672-64 64zM64 192c0 35.328 28.672 64 64 64h768c35.328 0 64-28.672 64-64s-28.672-64-64-64h-768c-35.328 0-64 28.672-64 64z" />
<glyph unicode="&#xe923;" glyph-name="MinusSign" d="M320 448c0 17.664 14.336 32 32 32h320c17.664 0 32-14.336 32-32s-14.336-32-32-32h-320c-17.664 0-32 14.336-32 32z" />
<glyph unicode="&#xe924;" glyph-name="Network" d="M384 192h384c62.080 0 128 57.664 128 128 0 31.808-15.168 63.168-43.456 88.512-29.056 26.048-65.408 39.488-94.784 39.488h-53.76c-43.776 0-81.984 29.632-92.928 72-26.432 102.272-98.24 184-195.072 184-162.752 0-288-124.864-288-256 0-140.032 112.384-256.128 256-256zM64 448c0 171.648 159.36 320 352 320 138.88 0 227.136-116.224 257.024-232 3.648-14.144 16.384-24 30.976-24h53.76c46.848 0 97.984-20.48 137.472-55.808 39.232-35.136 64.768-82.88 64.768-136.192 0-108.736-97.728-192-192-192h-384c-179.648-0.128-320 145.344-320 320z" />
<glyph unicode="&#xe925;" glyph-name="Network1" d="M384 192h384c62.080 0 128 57.664 128 128 0 31.808-15.168 63.168-43.456 88.512-29.056 26.048-65.408 39.488-94.784 39.488h-53.76c-43.776 0-81.984 29.632-92.928 72-26.432 102.272-98.24 184-195.072 184-162.752 0-288-124.864-288-256 0-140.032 112.384-256.128 256-256zM64 448c0 171.648 159.36 320 352 320 138.88 0 227.136-116.224 257.024-232 3.648-14.144 16.384-24 30.976-24h53.76c46.848 0 97.984-20.48 137.472-55.808 39.232-35.136 64.768-82.88 64.768-136.192 0-108.736-97.728-192-192-192h-384c-179.648-0.128-320 145.344-320 320z" />
<glyph unicode="&#xe926;" glyph-name="Org-List" d="M64 864c0 17.673 14.327 32 32 32h256c50.292 0 99.961-8.106 136.825-39.704 37.928-32.51 55.174-83.481 55.174-152.296v-672c0-17.67-14.327-32-32-32s-32 14.33-32 32c0 35.142-16.657 57.677-40.959 72.864-25.7 16.064-59.423 23.136-87.039 23.136h-256c-17.673 0-32 14.33-32 32v704zM479.999 154.496v549.504c0 59.185-14.753 88.214-32.825 103.704-19.135 16.403-49.466 24.296-95.174 24.296h-224v-640h224c36.383 0 82.66-8.928 120.959-32.864 2.378-1.485 4.726-3.034 7.039-4.64zM960 864c0 17.673-14.33 32-32 32h-256c-50.292 0-99.961-8.106-136.825-39.704-37.928-32.51-55.174-83.481-55.174-152.296v-672c0-17.67 14.327-32 32-32s32 14.33 32 32c0 35.142 16.657 57.677 40.959 72.864 25.7 16.064 59.423 23.136 87.039 23.136h256c17.67 0 32 14.33 32 32v704zM544.001 154.496v549.504c0 59.185 14.753 88.214 32.825 103.704 19.135 16.403 49.466 24.296 95.174 24.296h224v-640h-224c-36.383 0-82.66-8.928-120.959-32.864-2.378-1.485-4.726-3.034-7.039-4.64z" />
<glyph unicode="&#xe927;" glyph-name="pause" d="M352 896c-53.020 0-96-42.98-96-96v-704c0-53.018 42.98-96 96-96s96 42.982 96 96v704c0 53.020-42.98 96-96 96zM672 896c-53.020 0-96-42.98-96-96v-704c0-53.018 42.98-96 96-96 53.018 0 96 42.982 96 96v704c0 53.020-42.982 96-96 96z" />
<glyph unicode="&#xe928;" glyph-name="PersonGroup" d="M123.328 260.608c36.224 36.224 76.672 59.392 132.608 59.392h320c56 0 96.448-23.168 132.608-59.392 38.016-38.016 59.392-89.536 59.392-143.296v-85.312c0-17.664-14.336-32-32-32s-32 14.336-32 32v85.312c0 36.8-14.592 72.064-40.64 98.048-27.776 27.776-52.864 40.64-87.36 40.64h-320c-34.56 0-59.584-12.8-87.36-40.64-25.984-25.984-40.64-61.248-40.64-98.048v-85.312c0-17.664-14.336-32-32-32s-32 14.336-32 32v85.312c0 53.76 21.376 105.28 59.328 143.296zM774.080 306.816c10.368 14.272 30.4 17.472 44.672 7.040 64.704-47.040 77.184-132.288 77.184-196.544v-85.312c0-17.664-14.336-32-32-32s-32 14.336-32 32v85.312c0 61.76-13.248 117.44-50.816 144.768-14.272 10.368-17.472 30.4-7.104 44.672zM645.888 790.4c12.352 12.608 32.64 12.8 45.248 0.448 47.36-46.4 76.864-111.232 76.864-182.848s-29.44-136.448-76.864-182.848c-12.608-12.352-32.896-12.16-45.248 0.448s-12.16 32.896 0.448 45.248c35.584 34.88 57.6 83.392 57.6 137.152s-22.016 102.272-57.6 137.152c-12.608 12.352-12.8 32.64-0.448 45.248zM416 384c-123.712 0-224 100.288-224 224s100.288 224 224 224c123.712 0 224-100.288 224-224s-100.288-224-224-224zM416 448c88.384 0 160 71.616 160 160s-71.616 160-160 160c-88.384 0-160-71.616-160-160s71.616-160 160-160z" />
<glyph unicode="&#xe929;" glyph-name="PersonGroup1" d="M123.328 260.608c36.224 36.224 76.672 59.392 132.608 59.392h320c56 0 96.448-23.168 132.608-59.392 38.016-38.016 59.392-89.536 59.392-143.296v-85.312c0-17.664-14.336-32-32-32s-32 14.336-32 32v85.312c0 36.8-14.592 72.064-40.64 98.048-27.776 27.776-52.864 40.64-87.36 40.64h-320c-34.56 0-59.584-12.8-87.36-40.64-25.984-25.984-40.64-61.248-40.64-98.048v-85.312c0-17.664-14.336-32-32-32s-32 14.336-32 32v85.312c0 53.76 21.376 105.28 59.328 143.296zM774.080 306.816c10.368 14.272 30.4 17.472 44.672 7.040 64.704-47.040 77.184-132.288 77.184-196.544v-85.312c0-17.664-14.336-32-32-32s-32 14.336-32 32v85.312c0 61.76-13.248 117.44-50.816 144.768-14.272 10.368-17.472 30.4-7.104 44.672zM645.888 790.4c12.352 12.608 32.64 12.8 45.248 0.448 47.36-46.4 76.864-111.232 76.864-182.848s-29.44-136.448-76.864-182.848c-12.608-12.352-32.896-12.16-45.248 0.448s-12.16 32.896 0.448 45.248c35.584 34.88 57.6 83.392 57.6 137.152s-22.016 102.272-57.6 137.152c-12.608 12.352-12.8 32.64-0.448 45.248zM416 384c-123.712 0-224 100.288-224 224s100.288 224 224 224c123.712 0 224-100.288 224-224s-100.288-224-224-224zM416 448c88.384 0 160 71.616 160 160s-71.616 160-160 160c-88.384 0-160-71.616-160-160s71.616-160 160-160z" />
<glyph unicode="&#xe92a;" glyph-name="play" d="M192 849.728l702.976-401.728-702.976-401.728v803.456z" />
<glyph unicode="&#xe92b;" glyph-name="PlusSign" d="M320 448c0 17.664 14.336 32 32 32h320c17.664 0 32-14.336 32-32s-14.336-32-32-32h-320c-17.664 0-32 14.336-32 32zM512 256c-17.664 0-32 14.336-32 32v320c0 17.664 14.336 32 32 32s32-14.336 32-32v-320c0-17.664-14.336-32-32-32z" />
<glyph unicode="&#xe92c;" glyph-name="Premissions" d="M320 832c0 35.328 28.672 64 64 64h256c35.328 0 64-28.672 64-64h74.688c31.104 0 60.992-12.352 82.944-34.368s34.368-51.84 34.368-82.944v-597.312c0-31.104-12.352-60.992-34.368-82.944s-51.84-34.368-82.944-34.368h-533.312c-31.104 0-60.992 12.352-82.944 34.368s-34.368 51.84-34.368 82.944v597.312c0 31.104 12.352 60.992 34.368 82.944s51.84 34.368 82.944 34.368h74.688zM384 832v-64h256v64h-256zM320 768h-74.688c-14.144 0-27.712-5.632-37.696-15.616s-15.616-23.552-15.616-37.696v-597.312c0-14.144 5.632-27.712 15.616-37.696s23.552-15.616 37.696-15.616h533.312c14.144 0 27.712 5.632 37.696 15.616s15.616 23.552 15.616 37.696v597.312c0 14.144-5.632 27.712-15.616 37.696s-23.552 15.616-37.696 15.616h-74.688c0-35.328-28.672-64-64-64h-256c-35.328 0-64 28.672-64 64z" />
<glyph unicode="&#xe92d;" glyph-name="Premissions1" d="M320 832c0 35.328 28.672 64 64 64h256c35.328 0 64-28.672 64-64h74.688c31.104 0 60.992-12.352 82.944-34.368s34.368-51.84 34.368-82.944v-597.312c0-31.104-12.352-60.992-34.368-82.944s-51.84-34.368-82.944-34.368h-533.312c-31.104 0-60.992 12.352-82.944 34.368s-34.368 51.84-34.368 82.944v597.312c0 31.104 12.352 60.992 34.368 82.944s51.84 34.368 82.944 34.368h74.688zM384 832v-64h256v64h-256zM320 768h-74.688c-14.144 0-27.712-5.632-37.696-15.616s-15.616-23.552-15.616-37.696v-597.312c0-14.144 5.632-27.712 15.616-37.696s23.552-15.616 37.696-15.616h533.312c14.144 0 27.712 5.632 37.696 15.616s15.616 23.552 15.616 37.696v597.312c0 14.144-5.632 27.712-15.616 37.696s-23.552 15.616-37.696 15.616h-74.688c0-35.328-28.672-64-64-64h-256c-35.328 0-64 28.672-64 64z" />
<glyph unicode="&#xe92e;" glyph-name="PriceList" d="M480 896c17.664 0 32-14.336 32-32v-832c0-17.664-14.336-32-32-32s-32 14.336-32 32v832c0 17.664 14.336 32 32 32zM256 576c0 106.048 85.952 192 192 192h160c17.664 0 32-14.336 32-32s-14.336-32-32-32h-160c-70.72 0-128-57.28-128-128s57.28-128 128-128h64c106.048 0 192-85.952 192-192s-85.952-192-192-192h-224c-17.664 0-32 14.336-32 32s14.336 32 32 32h224c70.72 0 128 57.28 128 128s-57.28 128-128 128h-64c-106.048 0-192 85.952-192 192z" />
<glyph unicode="&#xe92f;" glyph-name="PriceList1" d="M480 896c17.664 0 32-14.336 32-32v-832c0-17.664-14.336-32-32-32s-32 14.336-32 32v832c0 17.664 14.336 32 32 32zM256 576c0 106.048 85.952 192 192 192h160c17.664 0 32-14.336 32-32s-14.336-32-32-32h-160c-70.72 0-128-57.28-128-128s57.28-128 128-128h64c106.048 0 192-85.952 192-192s-85.952-192-192-192h-224c-17.664 0-32 14.336-32 32s14.336 32 32 32h224c70.72 0 128 57.28 128 128s-57.28 128-128 128h-64c-106.048 0-192 85.952-192 192z" />
<glyph unicode="&#xe930;" glyph-name="Projects" d="M498.56 829.056c8.512 3.904 18.304 3.904 26.816 0l416-192c11.328-5.248 18.56-16.576 18.56-29.056s-7.232-23.808-18.56-29.056l-416-192c-8.512-3.904-18.304-3.904-26.816 0l-416 192c-11.328 5.248-18.56 16.576-18.56 29.056s7.232 23.808 18.56 29.056l416 192zM172.352 608l339.648-156.736 339.648 156.736-339.648 156.736-339.648-156.736zM66.944 237.44c7.424 16.064 26.432 23.040 42.496 15.68l402.56-185.792 402.624 185.792c16.064 7.424 35.072 0.384 42.432-15.68s0.384-35.072-15.68-42.496l-416-192c-8.512-3.904-18.304-3.904-26.816 0l-416 192c-16.064 7.424-23.040 26.432-15.616 42.432zM66.944 429.44c7.424 16.064 26.432 23.040 42.496 15.616l402.56-185.792 402.56 185.792c16.064 7.424 35.072 0.384 42.496-15.616s0.384-35.072-15.616-42.496l-416-192c-8.512-3.904-18.304-3.904-26.816 0l-416 192c-16.064 7.424-23.040 26.432-15.616 42.496z" />
<glyph unicode="&#xe931;" glyph-name="Projects1" d="M498.56 829.056c8.512 3.904 18.304 3.904 26.816 0l416-192c11.328-5.248 18.56-16.576 18.56-29.056s-7.232-23.808-18.56-29.056l-416-192c-8.512-3.904-18.304-3.904-26.816 0l-416 192c-11.328 5.248-18.56 16.576-18.56 29.056s7.232 23.808 18.56 29.056l416 192zM172.352 608l339.648-156.736 339.648 156.736-339.648 156.736-339.648-156.736zM66.944 237.44c7.424 16.064 26.432 23.040 42.496 15.68l402.56-185.792 402.624 185.792c16.064 7.424 35.072 0.384 42.432-15.68s0.384-35.072-15.68-42.496l-416-192c-8.512-3.904-18.304-3.904-26.816 0l-416 192c-16.064 7.424-23.040 26.432-15.616 42.432zM66.944 429.44c7.424 16.064 26.432 23.040 42.496 15.616l402.56-185.792 402.56 185.792c16.064 7.424 35.072 0.384 42.496-15.616s0.384-35.072-15.616-42.496l-416-192c-8.512-3.904-18.304-3.904-26.816 0l-416 192c-16.064 7.424-23.040 26.432-15.616 42.496z" />
<glyph unicode="&#xe932;" glyph-name="refresh-ccw" d="M128 832c35.328 0 64-28.672 64-64v-128h128c35.328 0 64-28.672 64-64s-28.672-64-64-64h-192c-35.328 0-64 28.672-64 64v192c0 35.328 28.672 64 64 64zM896 64c-35.328 0-64 28.672-64 64v128h-128c-35.328 0-64 28.672-64 64s28.672 64 64 64h192c35.328 0 64-28.672 64-64v-192c0-35.328-28.672-64-64-64zM212.864 574.144c-14.336-16.256-28.352-32.128-39.616-43.392-25.024-25.024-65.536-25.024-90.496 0s-25.024 65.536 0 90.496c8.704 8.704 17.92 19.2 29.696 32.576 8.128 9.216 17.408 19.776 28.672 32.192 25.472 28.032 56.832 60.608 94.208 91.392 75.008 61.76 176.96 118.592 308.672 118.592 263.424 0 376.448-191.040 412.736-299.776 11.2-33.536-6.912-69.76-40.512-80.96s-69.76 6.976-80.96 40.448c-27.776 83.264-106.688 212.224-291.264 212.224-92.224 0-166.272-39.168-227.328-89.408-30.592-25.216-57.216-52.672-80.768-78.592-7.488-8.256-15.296-17.152-23.040-25.856zM791.744 302.272c19.008 20.992 38.336 42.368 59.008 63.040 24.96 25.024 65.536 25.024 90.496 0s24.96-65.536 0-90.496c-13.312-13.312-27.648-29.504-43.328-47.232-81.792-92.416-201.408-227.52-417.92-227.52-263.424 0-376.448 191.040-412.736 299.776-11.2 33.536 6.976 69.76 40.448 80.96s69.76-6.976 80.96-40.448c27.776-83.264 106.688-212.224 291.264-212.224 153.984 0 230.208 84.16 311.744 174.272z" />
<glyph unicode="&#xe933;" glyph-name="Roles" d="M640 672c0 123.712-100.288 224-224 224s-224-100.288-224-224c0-123.712 100.288-224 224-224s224 100.288 224 224zM576 672c0-88.384-71.616-160-160-160s-160 71.616-160 160c0 88.384 71.616 160 160 160s160-71.616 160-160zM896 608c0 17.664-14.336 32-32 32s-32-14.336-32-32v-96h-96c-17.664 0-32-14.336-32-32s14.336-32 32-32h96v-96c0-17.664 14.336-32 32-32s32 14.336 32 32v96h96c17.664 0 32 14.336 32 32s-14.336 32-32 32h-96v96zM256 384c-56 0-96.448-23.168-132.608-59.392-38.016-38.016-59.328-89.536-59.328-143.296v-85.312c0-17.664 14.336-32 32-32s32 14.336 32 32v85.312c0 36.8 14.592 72.064 40.64 98.048 27.776 27.776 52.864 40.64 87.36 40.64h320c34.56 0 59.584-12.8 87.36-40.64 25.984-25.984 40.64-61.248 40.64-98.048v-85.312c0-17.664 14.336-32 32-32s32 14.336 32 32v85.312c0 53.76-21.376 105.28-59.392 143.296-36.224 36.224-76.672 59.392-132.608 59.392h-320z" />
<glyph unicode="&#xe934;" glyph-name="Roles1" d="M640 672c0 123.712-100.288 224-224 224s-224-100.288-224-224c0-123.712 100.288-224 224-224s224 100.288 224 224zM576 672c0-88.384-71.616-160-160-160s-160 71.616-160 160c0 88.384 71.616 160 160 160s160-71.616 160-160zM896 608c0 17.664-14.336 32-32 32s-32-14.336-32-32v-96h-96c-17.664 0-32-14.336-32-32s14.336-32 32-32h96v-96c0-17.664 14.336-32 32-32s32 14.336 32 32v96h96c17.664 0 32 14.336 32 32s-14.336 32-32 32h-96v96zM256 384c-56 0-96.448-23.168-132.608-59.392-38.016-38.016-59.328-89.536-59.328-143.296v-85.312c0-17.664 14.336-32 32-32s32 14.336 32 32v85.312c0 36.8 14.592 72.064 40.64 98.048 27.776 27.776 52.864 40.64 87.36 40.64h320c34.56 0 59.584-12.8 87.36-40.64 25.984-25.984 40.64-61.248 40.64-98.048v-85.312c0-17.664 14.336-32 32-32s32 14.336 32 32v85.312c0 53.76-21.376 105.28-59.392 143.296-36.224 36.224-76.672 59.392-132.608 59.392h-320z" />
<glyph unicode="&#xe935;" glyph-name="Routing" d="M512 832c-217.984 0-384-166.016-384-384s166.016-384 384-384c217.984 0 384 166.016 384 384s-166.016 384-384 384zM64 448c0 253.312 194.688 448 448 448s448-194.688 448-448c0-253.312-194.688-448-448-448s-448 194.688-448 448zM64 448c0 17.664 14.336 32 32 32h832c17.664 0 32-14.336 32-32s-14.336-32-32-32h-832c-17.664 0-32 14.336-32 32zM512 896c8.96 0 17.536-3.776 23.616-10.432 112.576-123.2 164.928-271.872 168.384-436.928 0-0.448 0-0.896 0-1.344-3.456-165.056-55.808-313.664-168.384-436.928-6.080-6.656-14.656-10.432-23.616-10.432s-17.536 3.776-23.616 10.432c-112.576 123.2-164.928 271.872-168.384 436.928 0 0.448 0 0.896 0 1.344 3.456 165.056 55.808 313.728 168.384 436.928 6.080 6.656 14.656 10.432 23.616 10.432zM384 448c3.008-138.752 43.392-262.272 128-366.912 84.608 104.64 124.992 228.16 128 366.912-3.008 138.752-43.392 262.272-128 366.912-84.608-104.64-124.992-228.16-128-366.912z" />
<glyph unicode="&#xe936;" glyph-name="Routing1" d="M512 832c-217.984 0-384-166.016-384-384s166.016-384 384-384c217.984 0 384 166.016 384 384s-166.016 384-384 384zM64 448c0 253.312 194.688 448 448 448s448-194.688 448-448c0-253.312-194.688-448-448-448s-448 194.688-448 448zM64 448c0 17.664 14.336 32 32 32h832c17.664 0 32-14.336 32-32s-14.336-32-32-32h-832c-17.664 0-32 14.336-32 32zM512 896c8.96 0 17.536-3.776 23.616-10.432 112.576-123.2 164.928-271.872 168.384-436.928 0-0.448 0-0.896 0-1.344-3.456-165.056-55.808-313.664-168.384-436.928-6.080-6.656-14.656-10.432-23.616-10.432s-17.536 3.776-23.616 10.432c-112.576 123.2-164.928 271.872-168.384 436.928 0 0.448 0 0.896 0 1.344 3.456 165.056 55.808 313.728 168.384 436.928 6.080 6.656 14.656 10.432 23.616 10.432zM384 448c3.008-138.752 43.392-262.272 128-366.912 84.608 104.64 124.992 228.16 128 366.912-3.008 138.752-43.392 262.272-128 366.912-84.608-104.64-124.992-228.16-128-366.912z" />
<glyph unicode="&#xe937;" glyph-name="search" d="M681.344 278.656c12.48 12.48 32.768 12.48 45.248 0l224-224c12.48-12.48 12.48-32.768 0-45.248s-32.768-12.48-45.248 0l-224 224c-12.48 12.48-12.48 32.768 0 45.248zM448 192c-176.704 0-320 143.296-320 320s143.296 320 320 320c176.704 0 320-143.296 320-320s-143.296-320-320-320zM448 128c212.096 0 384 171.904 384 384s-171.904 384-384 384c-212.096 0-384-171.904-384-384s171.904-384 384-384z" />
<glyph unicode="&#xe938;" glyph-name="smile" d="M512 832c-212.096 0-384-171.904-384-384s171.904-384 384-384c212.096 0 384 171.904 384 384s-171.904 384-384 384zM42.656 448c0 259.2 210.144 469.344 469.344 469.344s469.344-210.144 469.344-469.344c0-259.2-210.144-469.344-469.344-469.344s-469.344 210.144-469.344 469.344zM375.328 388.448c-14.176 18.688-40.8 22.432-59.616 8.352-18.848-14.112-22.656-40.864-8.544-59.744l34.144 25.6c-34.144-25.6-34.144-25.6-34.144-25.632l0.032-0.032 0.032-0.096 0.128-0.16 1.184-1.536c0.736-0.928 1.76-2.176 2.976-3.68 2.528-2.976 6.048-7.040 10.592-11.776 9.056-9.44 22.272-21.888 39.392-34.304 34.048-24.736 85.344-50.816 150.432-50.816s116.384 26.080 150.432 50.816c17.12 12.416 30.336 24.864 39.392 34.304 4.576 4.736 8.064 8.8 10.592 11.776 1.248 1.504 2.272 2.72 2.976 3.68l1.184 1.536 0.16 0.224v0.032c0 0 0 0.032-34.080 25.632l34.144-25.6c14.112 18.848 10.336 45.6-8.544 59.744-18.784 14.080-45.44 10.336-59.616-8.352l-0.224-0.256c-0.256-0.352-0.736-0.928-1.44-1.76-1.408-1.664-3.712-4.32-6.816-7.552-6.272-6.56-15.744-15.456-27.936-24.352-24.608-17.92-58.656-34.528-100.224-34.528s-75.616 16.608-100.224 34.528c-12.256 8.864-21.664 17.792-27.936 24.352-3.104 3.232-5.408 5.888-6.816 7.552-0.736 0.864-1.184 1.44-1.44 1.76l-0.224 0.256zM341.344 576c0 23.552 19.104 42.656 42.656 42.656h0.416c23.552 0 42.656-19.104 42.656-42.656s-19.104-42.656-42.656-42.656h-0.416c-23.552 0-42.656 19.104-42.656 42.656zM597.344 576c0 23.552 19.104 42.656 42.656 42.656h0.416c23.552 0 42.656-19.104 42.656-42.656s-19.104-42.656-42.656-42.656h-0.416c-23.552 0-42.656 19.104-42.656 42.656z" />
<glyph unicode="&#xe939;" glyph-name="stop-circle" d="M224 800h576c35.328 0 64-28.672 64-64v-576c0-35.328-28.672-64-64-64h-576c-35.328 0-64 28.672-64 64v576c0 35.328 28.672 64 64 64z" />
<glyph unicode="&#xe93a;" glyph-name="TaskList" d="M151.936 872.064c19.328 19.328 46.144 23.936 72.064 23.936l384-0.064c8.512 0 16.64-3.392 22.592-9.344l256.064-256c6.016-6.016 9.344-14.144 9.344-22.656v-512c0-25.92-4.608-52.736-23.936-72.064s-46.144-23.936-72.064-23.936h-576.064c-25.92 0-52.736 4.608-72.064 23.936s-23.936 46.144-23.936 72.064v704.064c0 25.92 4.608 52.736 23.936 72.064zM197.184 826.816c-1.088-1.088-5.184-6.272-5.184-26.816v-704.064c0-20.544 4.16-25.728 5.184-26.816s6.272-5.184 26.816-5.184h576.064c20.544 0 25.728 4.16 26.816 5.184s5.184 6.272 5.184 26.816v498.752l-237.312 237.248-370.752 0.064c0 0 0 0 0 0-20.544 0-25.728-4.16-26.816-5.184zM608 896c17.664 0 32-14.336 32-32v-224h224c17.664 0 32-14.336 32-32s-14.336-32-32-32h-256c-17.664 0-32 14.336-32 32v256c0 17.664 14.336 32 32 32zM256 480c0 17.664 14.336 32 32 32h448c17.664 0 32-14.336 32-32s-14.336-32-32-32h-448c-17.664 0-32 14.336-32 32zM256 352c0 17.664 14.336 32 32 32h448c17.664 0 32-14.336 32-32s-14.336-32-32-32h-448c-17.664 0-32 14.336-32 32zM256 224c0 17.664 14.336 32 32 32h448c17.664 0 32-14.336 32-32s-14.336-32-32-32h-448c-17.664 0-32 14.336-32 32zM256 608c0 17.664 14.336 32 32 32h128c17.664 0 32-14.336 32-32s-14.336-32-32-32h-128c-17.664 0-32 14.336-32 32z" />
<glyph unicode="&#xe93b;" glyph-name="TaskList1" d="M151.936 872.064c19.328 19.328 46.144 23.936 72.064 23.936l384-0.064c8.512 0 16.64-3.392 22.592-9.344l256.064-256c6.016-6.016 9.344-14.144 9.344-22.656v-512c0-25.92-4.608-52.736-23.936-72.064s-46.144-23.936-72.064-23.936h-576.064c-25.92 0-52.736 4.608-72.064 23.936s-23.936 46.144-23.936 72.064v704.064c0 25.92 4.608 52.736 23.936 72.064zM197.184 826.816c-1.088-1.088-5.184-6.272-5.184-26.816v-704.064c0-20.544 4.16-25.728 5.184-26.816s6.272-5.184 26.816-5.184h576.064c20.544 0 25.728 4.16 26.816 5.184s5.184 6.272 5.184 26.816v498.752l-237.312 237.248-370.752 0.064c0 0 0 0 0 0-20.544 0-25.728-4.16-26.816-5.184zM608 896c17.664 0 32-14.336 32-32v-224h224c17.664 0 32-14.336 32-32s-14.336-32-32-32h-256c-17.664 0-32 14.336-32 32v256c0 17.664 14.336 32 32 32zM256 480c0 17.664 14.336 32 32 32h448c17.664 0 32-14.336 32-32s-14.336-32-32-32h-448c-17.664 0-32 14.336-32 32zM256 352c0 17.664 14.336 32 32 32h448c17.664 0 32-14.336 32-32s-14.336-32-32-32h-448c-17.664 0-32 14.336-32 32zM256 224c0 17.664 14.336 32 32 32h448c17.664 0 32-14.336 32-32s-14.336-32-32-32h-448c-17.664 0-32 14.336-32 32zM256 608c0 17.664 14.336 32 32 32h128c17.664 0 32-14.336 32-32s-14.336-32-32-32h-128c-17.664 0-32 14.336-32 32z" />
<glyph unicode="&#xe93c;" glyph-name="Templates" d="M181.312 768c-14.144 0-27.712-5.632-37.696-15.616s-15.616-23.552-15.616-37.696v-533.312c0-14.144 5.632-27.712 15.616-37.696s23.552-15.616 37.696-15.616h661.312c14.144 0 27.712 5.632 37.696 15.616s15.616 23.552 15.616 37.696v405.312c0 14.144-5.632 27.712-15.616 37.696s-23.552 15.616-37.696 15.616h-362.688c-12.096 0-23.232 6.848-28.608 17.664l-55.168 110.336h-214.912zM98.368 797.632c22.016 22.016 51.84 34.368 82.944 34.368h234.688c12.096 0 23.232-6.848 28.608-17.664l55.168-110.336h342.912c31.104 0 60.992-12.352 82.944-34.368s34.368-51.84 34.368-82.944v-405.312c0-31.104-12.352-60.992-34.368-82.944s-51.84-34.368-82.944-34.368h-661.312c-31.104 0-60.992 12.352-82.944 34.368s-34.368 51.84-34.368 82.944v533.312c0 31.104 12.352 60.992 34.368 82.944zM480 576c17.664 0 32-14.336 32-32v-256c0-17.664-14.336-32-32-32s-32 14.336-32 32v256c0 17.664 14.336 32 32 32zM320 416c0 17.664 14.336 32 32 32h256c17.664 0 32-14.336 32-32s-14.336-32-32-32h-256c-17.664 0-32 14.336-32 32z" />
<glyph unicode="&#xe93d;" glyph-name="Templates1" d="M181.312 768c-14.144 0-27.712-5.632-37.696-15.616s-15.616-23.552-15.616-37.696v-533.312c0-14.144 5.632-27.712 15.616-37.696s23.552-15.616 37.696-15.616h661.312c14.144 0 27.712 5.632 37.696 15.616s15.616 23.552 15.616 37.696v405.312c0 14.144-5.632 27.712-15.616 37.696s-23.552 15.616-37.696 15.616h-362.688c-12.096 0-23.232 6.848-28.608 17.664l-55.168 110.336h-214.912zM98.368 797.632c22.016 22.016 51.84 34.368 82.944 34.368h234.688c12.096 0 23.232-6.848 28.608-17.664l55.168-110.336h342.912c31.104 0 60.992-12.352 82.944-34.368s34.368-51.84 34.368-82.944v-405.312c0-31.104-12.352-60.992-34.368-82.944s-51.84-34.368-82.944-34.368h-661.312c-31.104 0-60.992 12.352-82.944 34.368s-34.368 51.84-34.368 82.944v533.312c0 31.104 12.352 60.992 34.368 82.944zM480 576c17.664 0 32-14.336 32-32v-256c0-17.664-14.336-32-32-32s-32 14.336-32 32v256c0 17.664 14.336 32 32 32zM320 416c0 17.664 14.336 32 32 32h256c17.664 0 32-14.336 32-32s-14.336-32-32-32h-256c-17.664 0-32 14.336-32 32z" />
<glyph unicode="&#xe93e;" glyph-name="terminal" d="M0 768c0 106.048 85.952 192 192 192h640c106.048 0 192-85.952 192-192v-640c0-106.048-85.952-192-192-192h-640c-106.048 0-192 85.952-192 192v640zM192 832c-35.328 0-64-28.672-64-64v-640c0-35.328 28.672-64 64-64h640c35.328 0 64 28.672 64 64v640c0 35.328-28.672 64-64 64h-640zM210.752 685.248c25.024 25.024 65.536 25.024 90.496 0l128-128c25.024-25.024 25.024-65.536 0-90.496l-128-128c-25.024-24.96-65.536-24.96-90.496 0s-25.024 65.536 0 90.496l82.752 82.752-82.752 82.752c-25.024 25.024-25.024 65.536 0 90.496zM384 256c0 35.328 28.672 64 64 64h256c35.328 0 64-28.672 64-64s-28.672-64-64-64h-256c-35.328 0-64 28.672-64 64z" />
<glyph unicode="&#xe93f;" glyph-name="trash" d="M448 480c0 17.664-14.336 32-32 32s-32-14.336-32-32v-256c0-17.664 14.336-32 32-32s32 14.336 32 32v256zM608 512c17.664 0 32-14.336 32-32v-256c0-17.664-14.336-32-32-32s-32 14.336-32 32v256c0 17.664 14.336 32 32 32zM320 704v64c0 70.72 57.28 128 128 128h128c70.72 0 128-57.28 128-128v-64h224c17.664 0 32-14.336 32-32s-14.336-32-32-32h-96v-480c0-88.384-71.616-160-160-160h-320c-88.384 0-160 71.616-160 160v480h-96c-17.664 0-32 14.336-32 32s14.336 32 32 32h224zM448 832c-35.328 0-64-28.672-64-64v-64h256v64c0 35.328-28.672 64-64 64h-128zM256 640v-480c0-52.992 43.008-96 96-96h320c52.992 0 96 43.008 96 96v480h-512z" />
<glyph unicode="&#xe941;" glyph-name="UP-Down" d="M704 384h-384l192-256 192 256zM704 512h-384l192 256 192-256z" />
<glyph unicode="&#xe942;" glyph-name="uniE942" d="M704 384h-384l192-256 192 256z" />
<glyph unicode="&#xe943;" glyph-name="uniE943" d="M704 512h-384l192 256 192-256z" />
<glyph unicode="&#xe944;" glyph-name="uniE944" d="M704 384h-384l192-256 192 256z" />
<glyph unicode="&#xe945;" glyph-name="uniE945" d="M704 512h-384l192 256 192-256z" />
<glyph unicode="&#xe946;" glyph-name="User-List" d="M192 736c0-17.673-14.327-32-32-32s-32 14.327-32 32c0 17.673 14.327 32 32 32s32-14.327 32-32zM192 544c0-17.673-14.327-32-32-32s-32 14.327-32 32c0 17.673 14.327 32 32 32s32-14.327 32-32zM192 160c0-17.673-14.327-32-32-32s-32 14.327-32 32c0 17.673 14.327 32 32 32s32-14.327 32-32zM352 768h512c17.673 0 32-14.327 32-32s-14.327-32-32-32h-512c-17.673 0-32 14.327-32 32s14.327 32 32 32zM352 576h512c17.673 0 32-14.327 32-32s-14.327-32-32-32h-512c-17.673 0-32 14.327-32 32s14.327 32 32 32zM352 192h512c17.673 0 32-14.327 32-32s-14.327-32-32-32h-512c-17.673 0-32 14.327-32 32s14.327 32 32 32zM192 352c0-17.673-14.327-32-32-32s-32 14.327-32 32c0 17.673 14.327 32 32 32s32-14.327 32-32zM352 384h512c17.673 0 32-14.327 32-32s-14.327-32-32-32h-512c-17.673 0-32 14.327-32 32s14.327 32 32 32z" />
<glyph unicode="&#xe947;" glyph-name="VM" d="M842.688 768c29.44 0 53.312-23.872 53.312-53.312v-405.312c0-29.44-23.872-53.312-53.312-53.312h-661.312c-29.44 0-53.312 23.872-53.312 53.312v405.312c0 29.44 23.872 53.312 53.312 53.312h661.312zM960 714.688c0 64.832-52.544 117.312-117.312 117.312h-661.312c-64.832 0-117.312-52.544-117.312-117.312v-405.312c0-64.768 52.544-117.312 117.312-117.312h661.312c64.768 0 117.312 52.544 117.312 117.312v405.312zM704 32c0 17.664-14.336 32-32 32h-320c-17.664 0-32-14.336-32-32s14.336-32 32-32h320c17.664 0 32 14.336 32 32zM512 256c-17.664 0-32-14.336-32-32v-192c0-17.664 14.336-32 32-32s32 14.336 32 32v192c0 17.664-14.336 32-32 32z" />
<glyph unicode="&#xe948;" glyph-name="VM1" d="M842.688 768c29.44 0 53.312-23.872 53.312-53.312v-405.312c0-29.44-23.872-53.312-53.312-53.312h-661.312c-29.44 0-53.312 23.872-53.312 53.312v405.312c0 29.44 23.872 53.312 53.312 53.312h661.312zM960 714.688c0 64.832-52.544 117.312-117.312 117.312h-661.312c-64.832 0-117.312-52.544-117.312-117.312v-405.312c0-64.768 52.544-117.312 117.312-117.312h661.312c64.768 0 117.312 52.544 117.312 117.312v405.312zM704 32c0 17.664-14.336 32-32 32h-320c-17.664 0-32-14.336-32-32s14.336-32 32-32h320c17.664 0 32 14.336 32 32zM512 256c-17.664 0-32-14.336-32-32v-192c0-17.664 14.336-32 32-32s32 14.336 32 32v192c0 17.664-14.336 32-32 32z" />
<glyph unicode="&#xe949;" glyph-name="x-circle" d="M512 832c-212.096 0-384-171.904-384-384s171.904-384 384-384c212.096 0 384 171.904 384 384s-171.904 384-384 384zM42.656 448c0 259.2 210.144 469.344 469.344 469.344s469.344-210.144 469.344-469.344c0-259.2-210.144-469.344-469.344-469.344s-469.344 210.144-469.344 469.344zM670.176 606.176c16.64-16.672 16.64-43.68 0-60.32l-256-256c-16.672-16.64-43.68-16.64-60.32 0s-16.672 43.68 0 60.32l256 256c16.64 16.672 43.68 16.672 60.32 0zM353.824 606.176c16.672 16.672 43.68 16.672 60.32 0l256-256c16.64-16.64 16.64-43.68 0-60.32s-43.68-16.64-60.32 0l-256 256c-16.672 16.672-16.672 43.68 0 60.32z" />
<glyph unicode="&#xe94b;" glyph-name="Xmark" d="M329.344 630.656c12.48 12.48 32.768 12.48 45.248 0l320-320c12.48-12.48 12.48-32.768 0-45.248s-32.768-12.48-45.248 0l-320 320c-12.48 12.48-12.48 32.768 0 45.248zM329.344 265.344c-12.48 12.48-12.48 32.768 0 45.248l320 320c12.48 12.48 32.768 12.48 45.248 0s12.48-32.768 0-45.248l-320-320c-12.48-12.48-32.768-12.48-45.248 0z" />
<glyph unicode="&#xe94c;" glyph-name="Lock" d="M812.8-44.8h-601.6c-83.2 0-147.2 64-147.2 147.2v300.8c0 83.2 64 147.2 147.2 147.2h595.2c83.2 0 147.2-64 147.2-147.2v-300.8c6.4-76.8-57.6-147.2-140.8-147.2zM211.2 428.8c-12.8 0-19.2-12.8-19.2-25.6v-300.8c0-12.8 6.4-19.2 19.2-19.2h595.2c12.8 0 19.2 6.4 19.2 19.2v300.8c0 12.8-6.4 19.2-19.2 19.2h-595.2zM723.2 428.8c-38.4 0-64 25.6-64 64v166.4c0 38.4-12.8 76.8-44.8 102.4-51.2 64-153.6 64-204.8 6.4-25.6-25.6-44.8-64-44.8-102.4v-172.8c0-38.4-25.6-64-64-64s-64 25.6-64 64v166.4c0 76.8 32 140.8 83.2 198.4 51.2 51.2 115.2 83.2 192 83.2s140.8-32 198.4-83.2c51.2-51.2 83.2-121.6 83.2-198.4v-172.8c-6.4-32-32-57.6-70.4-57.6z" />
<glyph unicode="&#xe94d;" glyph-name="eye" d="M512 64c-320 0-499.2 349.867-507.733 366.933-4.267 12.8-4.267 25.6 0 38.4 8.533 12.8 187.733 362.667 507.733 362.667s499.2-349.867 507.733-366.933c4.267-12.8 4.267-25.6 0-38.4-8.533-12.8-187.733-362.667-507.733-362.667zM89.6 448c38.4-68.267 192-298.667 422.4-298.667s379.733 230.4 422.4 298.667c-38.4 68.267-192 298.667-422.4 298.667s-379.733-230.4-422.4-298.667zM512 277.333c-93.867 0-170.667 76.8-170.667 170.667s76.8 170.667 170.667 170.667c93.867 0 170.667-76.8 170.667-170.667s-76.8-170.667-170.667-170.667zM512 533.333c-46.933 0-85.333-38.4-85.333-85.333s38.4-85.333 85.333-85.333c46.933 0 85.333 38.4 85.333 85.333s-38.4 85.333-85.333 85.333z" />
<glyph unicode="&#xe94e;" glyph-name="limits-icon" d="M686.933-21.333h-349.867c-12.8 0-21.333 4.267-29.867 12.8l-251.733 251.733c-8.533 4.267-12.8 17.067-12.8 29.867v349.867c0 12.8 4.267 21.333 12.8 29.867l251.733 251.733c4.267 8.533 17.067 12.8 29.867 12.8h354.133c12.8 0 21.333-4.267 29.867-12.8l251.733-251.733c4.267-4.267 8.533-17.067 8.533-29.867v-354.133c0-12.8-4.267-21.333-12.8-29.867l-251.733-251.733c-4.267-4.267-17.067-8.533-29.867-8.533zM354.133 64h320l226.133 226.133v315.733l-230.4 226.133h-315.733l-226.133-226.133v-320l226.133-221.867zM512 405.333c-25.6 0-42.667 17.067-42.667 42.667v170.667c0 25.6 17.067 42.667 42.667 42.667s42.667-17.067 42.667-42.667v-170.667c0-25.6-17.067-42.667-42.667-42.667zM512 234.667c-25.6 0-42.667 17.067-42.667 42.667s17.067 42.667 42.667 42.667v0c25.6 0 42.667-17.067 42.667-42.667s-17.067-42.667-42.667-42.667z" />
<glyph unicode="&#xe94f;" glyph-name="copy" d="M853.333-21.333h-384c-72.533 0-128 55.467-128 128v384c0 72.533 55.467 128 128 128h384c72.533 0 128-55.467 128-128v-384c0-72.533-55.467-128-128-128zM469.333 533.333c-25.6 0-42.667-17.067-42.667-42.667v-384c0-25.6 17.067-42.667 42.667-42.667h384c25.6 0 42.667 17.067 42.667 42.667v384c0 25.6-17.067 42.667-42.667 42.667h-384zM213.333 277.333h-42.667c-72.533 0-128 55.467-128 128v384c0 72.533 55.467 128 128 128h384c72.533 0 128-55.467 128-128v-42.667c0-25.6-17.067-42.667-42.667-42.667s-42.667 17.067-42.667 42.667v42.667c0 25.6-17.067 42.667-42.667 42.667h-384c-25.6 0-42.667-17.067-42.667-42.667v-384c0-25.6 17.067-42.667 42.667-42.667h42.667c25.6 0 42.667-17.067 42.667-42.667s-17.067-42.667-42.667-42.667z" />
<glyph unicode="&#xe950;" glyph-name="map-marker-outline" d="M512 682.667c58.91 0 106.667-47.756 106.667-106.667v0c0-58.91-47.756-106.667-106.667-106.667v0c-58.91 0-106.667 47.756-106.667 106.667v0c0 58.91 47.756 106.667 106.667 106.667v0zM512 874.667c164.949 0 298.667-133.718 298.667-298.667v0c0-224-298.667-554.667-298.667-554.667s-298.667 330.667-298.667 554.667c0 164.949 133.718 298.667 298.667 298.667v0zM512 789.333c-117.821 0-213.333-95.513-213.333-213.333v0c0-42.667 0-128 213.333-414.293 213.333 286.293 213.333 371.627 213.333 414.293 0 117.821-95.513 213.333-213.333 213.333v0z" />
<glyph unicode="&#xe951;" glyph-name="undo-variant" d="M576 661.333c153.167 0 277.333-124.166 277.333-277.333v0c0-153.167-124.166-277.333-277.333-277.333v0h-149.333v85.333h149.333c106.667 0 192 85.333 192 192s-85.333 192-192 192h-241.92l131.413-131.84-60.16-60.16-234.667 234.667 234.667 234.667 60.587-60.16-131.84-131.84h241.92zM256 192h85.333v-85.333h-85.333v85.333z" />
<glyph unicode="&#xe952;" glyph-name="view-grid-outline" d="M554.667 64h341.333v341.333h-341.333zM640 320h170.667v-170.667h-170.667zM128 64h341.333v341.333h-341.333zM213.333 320h170.667v-170.667h-170.667zM341.333 832v-341.333h341.333v341.333zM597.333 576h-170.667v170.667h170.667v-170.667z" />
</font>
</defs>
</svg>
